<?xml version="1.0" encoding="UTF-8"?>
<svg id="Layer_2" data-name="Layer 2" xmlns="http://www.w3.org/2000/svg" viewBox="0 0 392.55 329.17">
  <defs>
    <style>
      .cls-1 {
        fill: #8a8d9c;
      }

      .cls-2 {
        fill: #b1b1b1;
      }

      .cls-3, .cls-4 {
        fill: #b39587;
      }

      .cls-5 {
        fill: #d8b9ab;
      }

      .cls-6 {
        fill: #b2b3bb;
      }

      .cls-7 {
        fill: #ababab;
      }

      .cls-8 {
        fill: #dbe1e1;
      }

      .cls-9 {
        fill: #dbb1b8;
      }

      .cls-10 {
        fill: gray;
      }

      .cls-11 {
        fill: #956c59;
        opacity: .81;
      }

      .cls-11, .cls-12, .cls-13, .cls-14, .cls-4, .cls-15, .cls-16, .cls-17 {
        stroke: #000;
        stroke-miterlimit: 10;
      }

      .cls-11, .cls-12, .cls-13, .cls-14, .cls-4, .cls-17 {
        stroke-width: .25px;
      }

      .cls-12 {
        fill: #fff;
      }

      .cls-13 {
        fill: #b98089;
      }

      .cls-14 {
        fill: #2e262e;
      }

      .cls-15 {
        fill: #869f9f;
      }

      .cls-16 {
        fill: #42696a;
      }

      .cls-18 {
        fill: #dcb1b9;
        opacity: .78;
      }

      .cls-19 {
        fill: #ffe7df;
        opacity: .8;
      }
    </style>
  </defs>
  <g id="Homepage">
    <g>
      <polygon class="cls-4" points="124.59 100.75 119.15 97.92 117.3 99.02 116.29 102.75 115.69 105.73 115.8 108.98 116.82 113.7 117.77 116.06 118.43 119.02 118.35 121.25 119.33 124.83 123.84 135.31 125.18 138.38 126.93 141.98 128.52 143.14 130.9 143.79 133.23 144.32 135.5 144.83 137.1 144.83 137.1 143.05 135.72 139.79 134.86 134.67 133.64 131.75 133.64 128.87 134.02 125.7 132.91 120.22 132.43 114.53 131.38 108.36 130.92 103.68 129.15 101.74 127.28 101.64 125.64 101.74 124.59 100.75"/>
      <polygon class="cls-11" points="257.27 99.52 262.75 95.21 265.9 95.02 266.71 98.47 267.67 105.96 266.18 113.85 264.85 118.36 263.37 123.03 261.65 128.87 260.52 133.75 259.64 137.84 257.86 140.11 255.25 141.6 253.01 143.13 251.82 144.34 253.83 137.22 255.66 126.66 255.61 121.15 256.19 113.85 255.95 109.21 255.66 103.97 257.27 99.52"/>
      <polygon class="cls-5" points="126.82 113.45 123.5 117.29 123.16 126.13 125.64 127.82 125.01 129.45 121.82 125.74 121.97 124.63 119.97 120.63 119.97 110.47 120.93 110.47 120.64 107.95 123.5 107.95 126.39 110.1 126.04 111.73 126.39 112.69 128.42 112.99 127.47 113.39 126.82 113.45"/>
      <polygon class="cls-5" points="257.86 103.86 261.52 97.93 261.52 96.79 262.75 95.64 265.22 96.81 263.1 99.75 263.18 110.56 263.95 112.62 265.22 110.81 264.88 105.58 265.22 104.46 265.98 105.58 265.98 109.2 265.98 110.47 261.92 124.37 259.26 127.17 258.29 127.23 258.35 125.34 260.63 122.12 259.26 120.98 256.11 124.97 257.49 126.85 257.27 128.15 256.38 128.99 255.5 134.35 257.27 134.75 257.6 133.75 257.76 132.56 259.59 131.75 259.26 136.06 257.27 138.08 257.27 139.22 253.83 141.41 253.06 141.41 252.7 140.83 252.7 140.46 253.65 139.89 253.48 136.96 254.34 136.36 254.12 129.58 255.84 127.45 255.64 116.56 256.69 112.62 257.27 111.52 257.27 105.58 257.86 103.86"/>
      <polygon class="cls-5" points="144.54 164.17 144.31 167.72 144.54 172.4 144.42 173 145.36 177.19 145.66 180.73 146.01 183.12 146.78 186.78 147.75 190 148.87 192.79 150.05 195.12 151.63 197.59 153.01 199.37 154.58 201.07 155.44 201.93 157.41 203.94 159.21 205.31 162.04 207.6 163.33 208.6 167.01 211.36 168.89 212.75 170.88 214.23 172.09 215.14 174.64 217.09 180.03 221.31 183.32 223.96 185.31 225.59 187.61 227.51 190.29 229.79 192.7 231.87 193.73 232.77 195.23 231.73 199.86 228.05 203.85 224.56 208.57 220.34 212.61 216.66 223.28 206.58 232.41 197.4 237.77 190.03 239.65 185.59 242.3 177.38 243.49 175.38 242.73 172.43 242.73 169.34 243.14 167.36 243.14 166.13 242.6 165.87 241.26 168.82 239.55 171.17 238.23 174.01 237.52 175.38 236.23 177.72 234.77 178.99 232.93 180.95 231.1 182.46 229.68 184.3 226.8 187.03 225.28 188.65 222.31 190.93 219.35 192.68 217.24 193.8 214.16 195.37 210.23 197.01 208.64 197.4 206.51 197.5 202.95 197.89 200.87 198.33 198.23 198.82 195.1 199.5 193.36 199.37 191.02 198.77 188.31 198.03 186.28 197.32 183.84 197.14 180.96 197.03 179.03 196.65 176.76 196.21 173.22 194.88 170.16 193.18 166.78 190.62 165.55 189.92 162.42 186.99 158.22 182.25 155.79 179.09 152.82 175.33 149.88 171.51 147.97 168.54 146.61 166.5 145.43 164.67 144.54 164.17"/>
      <path class="cls-3" d="m255.66,103.87l-1.25-8.58-.19-18.43-1.85-10.94-7.27-27.43-6.1-5.94-9.38-2.43-18.69-5.04h-9.98l-12.07,4.42,2.62-4.42-16.84,5.39-23.59,5.72-5.05,5.92-1.99,5.19-.52,6.02,1.05,2.3,1.16,3.7.26,3.68-1.43,4.74-2.47,3.83-5.83,6.66-2.27,3.13.25,4.43-1.07,9.25-.75,7.34-.15,5.61.45,10.85,1.2,4.55-.28,5.38.5,3.58.71,2.22.91,4.15.96,3.36.62,2.22-.62,1.02,2.19,6.63,2.55,5.69,4.47,7.7,9.92,14.15,6.63,7.33,5.87,5.07,3.59,2.2,3.2,1.43,3.16.95,5.26.56,2.4.18,2.76.79,4.75,1.13h3.1l4.85-1.09,3.31-.57,2.18-.08,4.36-.85,3.02-1.25,2.3-1.13,1.99-1.02,2.16-1.22,1.23-.8,9.76-8.93,3.98-4.04,1.44-1.97,2.32-5.02,2.03-2.88,1.1-2.53.82-.93,1.28-4.43,1.83-3.66,1.73-3.26,1.51-3.9,1.29-4.28.46-1.5,1.45-4.18,1.51-7.99.5-3.6.34-3.14.33-8.42.55-3.05-.53-9.54Zm-7.04,6.45v26.45l-1.31,3.49-1.45,2.5-2.4,3.8-2.36,3.3-4.25,6.96-2.89,4.01-5.16,7.88-2.35,3.08-2.91,5.42-2.34,2.68-1.82,3.24-2.29,3.41-1.94-.25-1.27.13-3.45-.63-4.58-.97-2.14-.87-1.76-.82-2.97-.11-.43,1.79-.07,2.47h-1.38l-2.43-.87h-3.21l-4.38-.25-3.31.5-3.62.62-2.62-1.49-2.1-1.84-5.63-3.8-3.16-2.93-3.56-4.72-6.07-6.73-3.51-5.68-.88-4.07-1.76-6.87-1.62-6.86-.5-2.87-1.25-3.9-2-2.67-2.08-3.12-1.08-1.39v-1.77l.17-4.35-.83-2.87v-4.03l.36-4.99v-8.82l.37-.66.51-.95.33-1.21.18-.63h1.18l.76.78.62.62.29,1.72.29,1.14.18,1.17.22,1.32.44,1.17,1.06.81,1.46-.18,1.44-.22.61-1.06.62-.99.51-1.06.4-1.25.26-.73.73-.26h3.26l2.12.15,1.35.48,1.54.15h2.37l.64-.55,7.36-2.56.73-.22,1.57-.07,1.56-.11,1.01-.23,1.65-.23,1.88.23.79-.23.29-.49-.75-1.21-1.17-1.06-1.56-1.9-1.94-1.83-1.57-1.3-1.14-.72-1.46-.59-2.09-.04-1.24-.18-2.35-.07-2.3.15-3.83,1.05-3.74,1.04h-1.36l1.15-.78,1.83-.85,3.6-.85,3.91-.75,3.5.34,2.78.14,2.72.38,2.38,1.6,5.62,5.69.4,1.21-.26,5.07-.36,3.96-.62,2.02-1.62,5.14-2.46,6.98-1.83,4.63c-2.21,2.06-.83,4.89-.83,4.89l.83,1.12.74.77,1.01.63.1,1.08,1.96,1.75c-.63,1.19.56,1.78.56,1.78h1.12l.42-.63.73-.28,1.64.14.77-.17.68-.45,2.67-.17,2.23.17,1.82.16.92.61h1.42l2.2-.45h.98l.84-.59,1.08-.45,1.18-.45.98-.63.56-.52.52.52.03.73.43.66,1.35.21.56-.31.1-.77.52.24.56.49.42.56h.82l.65-.49,1.19-.84,1.39-.59.7-1.29.64-1.15c.86-1.56-.3-1.37-.3-1.37l-.68.19-1.31.72h-.92l-1.63-.6-1.87-.98-1.54.95-1.42.63-3.1.79-2.84.93-1.79,1.58-1.32-1.33-4.43-2.61-3.16-2.11-1.14.13-2.17.59-2.65,1.39c-7.14,1.09-2.28-4.48-2.28-4.48l2.54-.68,2.93-.76.64-1.23v-1.95l.99-2.22.5-2.75.64-3.53.94-4.62.75-6.25.64-4.54-.02-7.69-6.09-8.55-10.99-5.44-6.12-1.66h-4.04l-3.69-.98-.69-2.19,1.04-1.96,3.12-3.69,4.72-4.27v-3.38l-3.26-1.01-4.58-1.18v-3.67l3-5.54,4.83-7.85,2.21-.69,3.35-1.36,2.42-1.21h4.5l4.18-.9,8.16-1.15,2.79-.31h8.82l.65.87,1.95-.55.76,1.31,1.95-.54,1.62,1.27,1.35-.79.6,1.19,1.43-.05,2.95-.05,1.52,1.14,2.38-.22h.49l1.89,1.31,2.54.81,2.06,2.38,1.93,3.41,1.32,1.19.7,2.71,2.27,5.41.32,1.95-.76,2.12-1.25,2.26-.76,2.87.49,1.68.54.81,1.08,1.19,1.35,2.65.81,2.11-1.19.49-.54.05-.7.38-.87.49-1.35.7-1.19.32-1.19.11-2.11.36-2.59.51-4.17,1.15-2.77.23-2.82,1.54-2.7.6-2.33,2.71-2.63,2.26c-1.97,1.38-.28,3.02-.28,3.02l1.45-.74,1.78.08,1.08.33-1.08.66-1.37.61-1.86,1.83-.99,2.16-.42,1.21-.95,2.31-.63,1.97-.16,2.97.32,1.44h.63l.47-.55,1-.63,1.26.37,1.1-.16-.21-1-.68-.63-.47-1.58-.53-1.12.25-1.77.96-1.14.95-1.69,1.1-.71.95.3-.84,1.04v1.19h.84l.94-1.24.89-.89.84.41-.05.63-1.34.95-.92,1.14-1.47,1.49-.37,1.18.37.6,1.26-.37,2.36-.5,1.56-.43,1.69.29,2.66.65,2.7.9,1.5.53,3.17.47h2.57l1.63-.63,2.71-.32,2.28.37,2.8,1.01,2.65,2.28h1.43l1.29-2.28.51-1.68.39-4.16.22-1.88h1.17l.75,1.88,1.32,3.51v3.25l.93,3.94,1.11,2.62-.73,4.47Z"/>
      <polygon class="cls-12" points="159.71 91.47 152.53 96.81 151.82 97.62 153.47 97.92 155.76 98.77 157.86 99.73 161.29 100.33 163.91 100.33 166.62 100.05 169.53 99.39 173.26 98.14 175.91 96.81 178.74 96.52 181.53 97.23 180.7 95.15 178.74 93.05 174.64 91.11 169.99 90.12 166.68 89.72 163.36 90.12 159.71 91.47"/>
      <path class="cls-12" d="m218.98,89.35s-7.12,2.21-7.91,5.2c0,0,5.31.66,6,1.36l5.99.75,4.44.13,4.07-.46,2.56-1,1.83-1.85-4.9-2.99s-5.07-2.9-8.02-1.91l-4.09.77Z"/>
      <path class="cls-13" d="m170.43,155.16s5.93-1.8,8.79-3.19c0,0,7.91-3.66,12.23-2.39,0,0,7.91,2.58,9.94,1.39,0,0,2.83-2.38,3.97-2.62,0,0,3.69-1.2,6.27.7,0,0,6.84,3.04,8.51,2.24l.95.72-.27,1.9-1.22,2.01-2.74,3.04-3.27,2.89-3.95,2.98-5.19,1.69-4.31.54h-9.93l-4.28-.88-3.91-1.48-4.22-2.17-2.28-2.51-2.35-2.27-2.74-1.44-.81-.26.81-.89Z"/>
      <polygon class="cls-8" points="144.88 176.32 143.42 185.22 144.15 198.12 144.84 207.07 145.99 213 148.46 225.65 150.38 233.44 154.9 244.84 162.93 262.96 166.66 272.23 172.29 292.09 176.65 302.54 179.29 313.9 180.62 315.79 180.62 288.12 180.9 283.4 183.18 272.71 184.94 268.61 185.45 263.52 179.31 253.4 180.66 249.25 184.94 242.88 189.25 236.36 190.82 234.33 193.89 233.5 196.04 236.19 198.37 238.53 201.85 243.88 205.34 249.76 207.91 254.13 204.83 258.82 202.81 262.96 202.6 264.41 204.6 267.36 207.43 274.1 209.74 284.89 210.45 290.5 211.23 298.12 211.52 302.96 212.04 308.44 212.64 310.57 213.69 305.17 215.19 298.37 217.51 288.07 220.42 275.66 222.2 268.52 229.62 244.34 234.29 232.94 238.57 218.61 241.75 206.97 243.49 196.34 243.49 189.99 244.06 185.98 243.97 180.2 243.14 175.96 240.46 183.12 238.23 188.93 236.39 192.32 231.85 197.96 225.9 203.94 219.8 209.87 214.53 214.84 208.99 219.96 203.28 224.98 198.47 229.16 195.5 231.79 194 232.77 191.05 230.66 178.2 219.88 165.07 210.26 156.65 203.11 152.44 199 149.89 194.69 147.12 187.68 145.84 182.5 145.28 177.93 144.88 176.32"/>
      <path class="cls-17" d="m125.64,99.05l-1.43-16.06s.15-1.22-.73-.69c0,0,2.35-7.26-.73-10,0,0,2.18-4.24,1.44-6.79l-.89.87s2.2-6.83,1.24-11.05c0,0,.22-3.73,1.74-5.22,0,0-.19-1.12-1.43-1.24,0,0,1.48-3.69,3.56-4.63,0,0,.61-.52-.27-1.86,0,0,.86-.02,1.12-1.52,0,0-.09-1.33.98-1.92s.94-1.66.94-1.66c0,0,1.32-.28,1.88-1.92,0,0,1.65-2.02,1.45-3.82,0,0-.08-1.67,1.73-1.96,0,0,.88-.38.92-1.06,0,0,.95.06,1.03-1.36,0,0,.19-1.71,2.24-.85,0,0,.12-2.82,1.82-2.96,0,0,2.16-1.22,2.87-1.22,0,0-.42-.82-1.19-.74,0,0,1.91.27,2.88-.16,0,0,1.31-.82.12-1.22,0,0,1.92-.04,2.16-.7l14.78-8.89,9.91-3.82,10.78-3.21,14.3-.27,9.54,2.22,8.08,2.63,10.11,5.16,8.93,5.67,8.15,7.73,7.95,11.27,3.61,9.13,2.22,9.81,2.66,13.43-.19,18.42-4.1,12.13-1.12-3.18-4.01-26.54-5.13-3.25-1.78-2.71.97-8.44-.91-7.57-4.46-10.29-2.21-3.15-.48-1.25.15-.68-1.31-.91-2.09,1.6-1.46-.93-5.41-1.7-3.62-1.45-4.28-1.84-2.16-.35-3.07.74.06-1.04-3.52,1.05-3.05,1.21-.1-1.17.45-1.82-4.62,2.58-.82.07-.18-2.45-1.76-.34-5.66,2.06-1.5.55,1.11-2.28-1.95.39-2.05.93,1.64-3.36-4.64,1.18-15.64,4.95-21.25,5.25-3.81,3.81-2.01,4.64-1.13,5.31.57,3.45,1.34,5.57,1.08,3.76-3.37,7.96-4.31,4.98-3.32,4.17-1.32,9.91-1.08,10.63-.36,8.01.18,3.35s-2.82-10.44-3.27-10.37l-3.51-2.7Z"/>
      <path class="cls-17" d="m144.58,82.67s3.96-6.04,9.68-7.4c5.71-1.36,10.79-.51,10.79-.51l7.58,1.67,5.51,1.4,3.4,2.03v.8l-2.27,1.36-2.98.65s-3.84-1.67-5.98-1.94l-4.74-.31-4.49-1.18-3.88-.39-2.71.91-2.95.59-4.81,1.86-2.15.45Z"/>
      <polygon class="cls-14" points="213.37 81.47 216.45 77.87 218.71 76.8 228.22 75.21 233.79 75.37 240.52 77.64 241.66 78.96 240.63 79.05 236.48 78.45 232.6 78.56 227.18 78.96 222.73 79.6 216.44 81.02 214.41 81.47 213.37 81.47"/>
      <path class="cls-17" d="m160.66,91.81s-.95,6.42,3.51,5.94l1.85.17,1.76-.94,1.35-1.59s1.32-.39-.08-4.86c0,0-6.21-1.33-8.39,1.28Z"/>
      <polygon points="219.78 89.29 219.72 92.11 220.91 94.37 222.13 95.21 223.63 95.64 225.05 95.91 226.38 95.64 227.52 94.68 228.61 93.15 229.13 91.45 229.13 90.02 228.13 89.29 224.43 88.58 219.78 89.29"/>
      <path d="m212.41,6c-.42-.1-.77-.09-1.2,0-.27.06-.52.18-.76.31-.27.14-.51.34-.8.46l.36-.15c-.07.03-.13.05-.2.07-.19.05-.36.13-.51.27-.16.1-.29.24-.38.42-.11.17-.17.36-.18.55-.04.2-.04.4.03.59.12.36.34.71.68.89s.75.25,1.15.15c.22-.06.44-.16.64-.26.1-.05.19-.1.28-.16.19-.12.38-.25.59-.34l-.36.15c.11-.04.22-.08.34-.1l-.4.05c.07,0,.14,0,.22,0l-.4-.05s.06.01.09.02c.39.09.8.05,1.15-.15.17-.09.31-.22.42-.38.13-.14.22-.31.27-.51.09-.38.07-.81-.15-1.15-.2-.32-.51-.6-.89-.68h0Z"/>
      <path d="m210.75,5.67c.18-.03-.35.03-.42.03-.22,0-.44,0-.65,0-.34-.02-.52-.05-.97-.16-.8-.21-1.33-.48-2.05-1.02l-1.5,2.57c.46.23.84.32,1.35.39.72.09,1.38-.64,1.46-1.29s-.33-1.52-1.07-1.63c-1.07-.16-1.96-.52-2.92-.94-1.28-.56-2.48-.58-3.76,0-1.01.46-.94,2.09,0,2.57,1.34.68,2.87.86,4.3.37.76-.26,1.26-1.02,1.04-1.83-.2-.74-1.07-1.3-1.83-1.04s-1.38.25-2.01-.07v2.57c-.22.1.47-.08.19-.05.11,0,.22,0,.33,0-.13-.02-.1-.01.1.03.36.11.56.22.94.39.91.41,1.84.72,2.83.87l.4-2.92c.05-.01.1,0,.15.02-.72-.37-1.61-.19-2.04.53-.44.76-.11,1.55.53,2.04,1.84,1.37,4.15,1.8,6.39,1.45.8-.12,1.23-1.12,1.04-1.83-.23-.85-1.03-1.16-1.83-1.04h0Z"/>
      <path d="m189.89,5.64c-.21.02-.23.02-.07.01.17,0,.15,0-.07-.02,0,.02.3.08.32.08.04.01.45.17.25.09s.22.1.25.11c.67.29,1.33.56,2.08.51s1.53-.65,1.49-1.49-.66-1.41-1.49-1.49l-1.57-.16,1.29,2.24-.25.3c.57-.25.87-1.11.68-1.68-.21-.64-.76-1.07-1.44-1.09.2,0,.38.08.54.22v2.1c-.16.15-.45.27-.67.25-.1,0-.33-.13-.11,0,.2.13.4.23.62.33.52.22,1.05.34,1.63.35,1.01.02,1.96-.33,2.88-.71.59-.25,1.12-.73,1.09-1.44-.03-.63-.44-1.29-1.09-1.44-1.01-.23-1.91.15-2.49,1-.52.76-.01,2.01.89,2.19,1.14.23,2.52.72,3.59.04.67-.43,1.1-1.18.99-1.98-.14-1.08-1.32-1.58-2.29-1.33-.75.2-1.29,1.07-1.04,1.83s1.02,1.25,1.83,1.04l-.45.02-.66-.38.09.07-.44-1.05c.04-.61.27-.7.67-.84-.18-.01-.19,0-.04,0-.1-.02-.19-.04-.29-.06-.39-.08-.78-.16-1.17-.24l.89,2.19c-.2.3-.52.44-.87.36v-2.87c-.47.2-.95.4-1.44.52-.12.03-.24.05-.36.08.28-.06,0,0-.08,0-.11,0-.23,0-.34,0-.37-.01.21.09-.14-.03-.04-.01-.35-.15-.2-.06s-.13-.09-.16-.11c-.25-.15-.51-.3-.8-.38-.77-.21-1.56-.04-2.13.52s-.58,1.56,0,2.1c.45.42.95.63,1.56.65l-.75-2.77c-.36.16-.6.45-.82.77-.3.42-.25,1.07,0,1.5.28.49.75.68,1.29.74l1.57.16v-2.98c-.08,0-.15,0-.23,0,.21.04.23.04.06,0-.15-.04-.29-.08-.44-.13-.37-.13.28.13-.08-.03-.23-.1-.45-.2-.68-.29-.72-.3-1.44-.4-2.2-.23s-1.28,1.1-1.04,1.83c.26.81,1.01,1.21,1.83,1.04h0Z"/>
      <path d="m145.82,61.37c-.11-1.44-.52-2.83-1.28-4.06-.2-.32-.52-.58-.89-.68s-.83-.05-1.15.15-.6.51-.68.89-.06.8.15,1.15c.2.32.37.64.51.99l-.15-.36c.25.59.42,1.22.51,1.86l-.05-.4c.02.15.04.31.05.47.03.4.15.76.44,1.05.26.26.68.45,1.05.44s.78-.14,1.05-.44.47-.66.44-1.05h0Z"/>
      <path d="m143.44,67.74c1.92,0,1.92-2.98,0-2.98s-1.92,2.98,0,2.98h0Z"/>
      <path d="m144.48,41.07c1.92,0,1.92-2.98,0-2.98s-1.92,2.98,0,2.98h0Z"/>
      <path d="m148.67,37.41c1.92,0,1.92-2.98,0-2.98s-1.92,2.98,0,2.98h0Z"/>
      <path d="m145.53,41.24c1.92,0,1.92-2.98,0-2.98s-1.92,2.98,0,2.98h0Z"/>
      <path d="m154.58,16.24c.48,0,.48-.74,0-.74s-.48.74,0,.74h0Z"/>
      <path d="m154.45,16.04c.48,0,.48-.74,0-.74s-.48.74,0,.74h0Z"/>
      <path d="m155.06,15.97c.48,0,.48-.74,0-.74s-.48.74,0,.74h0Z"/>
      <path d="m151.79,18.15c.48,0,.48-.74,0-.74s-.48.74,0,.74h0Z"/>
      <path d="m193.32,29.92c.48,0,.48-.74,0-.74s-.48.74,0,.74h0Z"/>
      <path d="m192.87,30.43c.48,0,.48-.74,0-.74s-.48.74,0,.74h0Z"/>
      <path d="m193.76,29.73c.48,0,.48-.74,0-.74s-.48.74,0,.74h0Z"/>
      <path d="m222.88,11.94c.03-.73-.37-1.43-.99-1.8l-.29.68c.51.08,1.06.15,1.51.38.1.05.19.1.28.17,0,0,.08.06.06.04-.02-.01.03.03.04.03.04.04.09.08.13.12s.08.08.11.13c.04.05-.02-.04.01.01.01.02.03.04.04.06.03.05.06.1.08.15l.02.03s0-.03,0,0c.01.03.02.06.03.09.06.19.26.31.46.26.19-.05.32-.27.26-.46-.18-.54-.58-.97-1.07-1.24-.54-.3-1.15-.4-1.76-.49-.18-.03-.36.03-.44.22-.07.17,0,.37.15.46.03.02.06.04.1.06.01,0,.05.03.02.01.06.04.11.09.15.14.02.02.04.05.06.07.08.09-.02-.02.02.03s.08.12.11.18c.02.03.03.06.04.09.02.03,0-.02.01.03.02.06.04.12.06.18,0,.04.02.07.02.11.01.06,0,0,0,.03,0,.07,0,.14,0,.21,0,.2.18.37.37.37.21,0,.36-.17.37-.37h0Z"/>
      <path d="m232.47,17.15c.08.03.15.05.23.08.02,0,.04.02.06.02.04.01.03,0,0,0,.04.01.07.03.11.05.15.07.3.15.45.23s.28.17.41.26c.03.02.07.05.1.07.02.01.03.02.05.04,0,0,.06.05.02.02s.02.01.02.02c.02.01.03.03.05.04.04.03.07.06.1.09.15.13.38.16.53,0,.13-.14.16-.39,0-.53-.57-.49-1.21-.86-1.92-1.1-.18-.06-.41.07-.46.26-.05.21.06.39.26.46h0Z"/>
      <path d="m236.75,20.38h.7c.1,0,.2-.04.26-.11s.11-.17.11-.26-.04-.2-.11-.26-.16-.11-.26-.11h-.7c-.1,0-.2.04-.26.11s-.11.17-.11.26.04.2.11.26.16.11.26.11h0Z"/>
      <path d="m236.5,19.81c.48,0,.48-.74,0-.74s-.48.74,0,.74h0Z"/>
      <path d="m240.11,23c-.08-.76-.56-1.38-1.3-1.59l-.1.73c.52.02,1.05.06,1.32.57.2.39.27.83.47,1.22.43.83,1.3,1.07,2.04,1.53.4.25.72.58.7,1.07-.02.45-.05.87.28,1.22.63.66,1.61.33,1.91-.45.09-.24-.14-.45-.36-.47-.45-.04-.88,0-1.32.11-.48.11-.26.78.2.72s.86-.18,1.27-.34c.3-.12.4-.65,0-.72-.55-.09-1.05-.03-1.55.21-.31.15-.19.59.09.68,1.3.44,2.1,1.78,1.96,3.13l.73-.1c-.25-1.03-.4-2.07-.46-3.13-.03-.48-.77-.48-.74,0,.06,1.12.22,2.23.48,3.32.1.44.69.29.73-.1.18-1.69-.91-3.31-2.5-3.85l.09.68c.31-.15.64-.2.98-.14v-.72c-.41.17-.83.28-1.27.34l.2.72c.38-.09.74-.11,1.12-.08l-.36-.47c-.1.25-.4.35-.61.17s-.14-.43-.13-.67c.02-.37-.04-.71-.25-1.03-.43-.68-1.2-.93-1.86-1.31-.38-.22-.65-.49-.81-.91-.13-.34-.22-.7-.39-1.02-.4-.76-1.17-.91-1.96-.94-.42-.02-.5.62-.1.73s.71.44.76.87c.05.47.79.48.74,0h0Z"/>
      <path d="m246.17,30.67c.94.75,1.71,1.67,2.37,2.66.28.41.54,1.08,1.05,1.24s1-.25.89-.77c-.02-.12-.14-.24-.26-.26-.5-.09-1.21.01-1.18.67.01.34.28.65.45.93.21.35.43.69.64,1.04.2.32.68.18.69-.19.01-.5.03-.99.04-1.49,0-.22.03-.45-.1-.65-.12-.18-.32-.24-.51-.31-.44-.16-.87-.35-1.27-.59-.12-.07-.8-.47-.46-.64.27-.13.21-.5,0-.64-.74-.51-1.33-1.19-1.75-1.98-.23-.42-.87-.05-.64.38.48.91,1.17,1.67,2.02,2.25v-.64c-.38.19-.52.65-.41,1.04.14.47.61.74,1.01.96.24.13.48.24.72.35.14.06.63.19.68.25,0,0-.02.27-.02.33,0,.15,0,.31-.01.46,0,.31-.02.61-.03.92l.69-.19c-.22-.36-.45-.73-.67-1.09-.1-.16-.2-.33-.3-.49-.08.03-.1.04-.04.02.02,0,.05-.01.07,0,.06,0,.12,0,.19.02l-.26-.26c-.02-.09,0-.13.07-.13l-.06-.04c-.04-.09-.13-.18-.19-.26-.11-.18-.22-.35-.34-.52-.24-.36-.49-.71-.75-1.05-.53-.68-1.12-1.31-1.8-1.85-.37-.3-.9.23-.53.53h0Z"/>
      <path d="m227.85,32.61l-.02.08h.72c-.11-.31-.36-.49-.65-.63l-.29.68.76.25c.26.09.52.18.79.17.13,0,.25-.07.32-.18.06-.11.08-.27,0-.38-.2-.28-.52-.45-.82-.61-.28-.15-.56-.29-.85-.43-.17-.08-.41-.05-.51.13-.09.17-.05.42.13.51.27.13.54.26.8.4.13.07.25.14.38.21.03.02.06.04.09.06.02.01.08.04.09.06-.04-.03-.05-.04-.01-.01.01.01.03.02.04.03.02.02.08.1.02.02l.32-.56s-.06,0-.08,0c-.02,0-.04,0-.06,0,.05,0,.06,0,.03,0-.05-.01-.11-.02-.16-.04-.12-.03-.23-.08-.35-.11l-.73-.24c-.18-.06-.37.05-.44.22s-.02.39.15.46c.09.04.17.09.26.14.06.04-.06-.06,0,0,.02.02.03.03.05.05.05.05-.04-.07,0,0,.01.03.05.11,0,0,.05.15.19.28.36.27.16,0,.32-.11.36-.27l.02-.08c.05-.19-.06-.41-.26-.46s-.41.06-.46.26h0Z"/>
      <path d="m224.6,31.39c.48,0,.48-.74,0-.74s-.48.74,0,.74h0Z"/>
      <path d="m222.18,29.78s-.07,0-.11,0h.1s-.06,0-.08,0c-.01,0-.03,0-.04-.01l.05.02s-.07-.03-.08-.04c-.02-.01-.04-.02-.06-.04-.1-.06-.19-.13-.29-.19-.2-.12-.4-.24-.61-.34-.17-.09-.41-.05-.51.13-.09.17-.05.42.13.51.24.12.47.25.69.39.24.16.5.35.81.32.1-.01.19-.03.26-.11.06-.06.11-.17.11-.26s-.04-.2-.11-.26c-.07-.06-.17-.12-.26-.11h0Z"/>
      <path d="m235.89,33.88c.48,0,.48-.74,0-.74s-.48.74,0,.74h0Z"/>
      <path d="m235.35,33.31s.04,0,.04,0c0,0-.1-.01-.04,0,.06.01-.05-.03-.02-.01.01,0,.02.02.03.02.04.02-.05-.05-.03-.02,0,0,.02.02.03.03.01.01.02.03.04.04-.01,0-.05-.07-.02-.02.02.02.03.05.04.07,0,.01.01.03.02.04.03.07-.02-.06,0-.02.02.06.04.13.07.19.06.16.12.3.22.44.05.06.1.12.15.17.02.02.05.05.07.07,0,0,.04.05,0,0-.04-.05,0,.01,0,.02l.42-.55s.07.03.02,0c-.01,0-.03-.01-.04-.02-.03-.02-.06-.03-.09-.05-.02-.01-.03-.02-.05-.03-.04-.03.06.05.02.02-.03-.02-.05-.04-.08-.07s-.05-.05-.07-.07c-.04-.04,0-.01,0,.01,0-.01-.02-.02-.03-.04-.04-.06-.08-.13-.12-.2-.17-.3-.42-.52-.71-.71l-.29.68s.04.02.06.02c.05.02-.08-.04,0,0,.03.02.07.03.1.05.07.03.13.07.19.11.01,0,.02.01.03.02l-.04-.03s.04.03.05.04c.03.02.05.05.08.08s.05.05.07.08c.01.02.03.03.04.05.04.05-.03-.04,0,0,.09.13.18.25.27.38.04.06.08.13.12.2.02.03.03.08.06.11-.01-.01-.03-.07,0-.02,0,.02.02.05.03.07l.46-.46s-.03,0-.05-.01c-.07-.02.01,0,.02.01,0,0-.04-.02-.05-.03-.03-.02.07.06.02.01-.01-.01-.02-.02-.03-.03,0,0-.05-.06-.01-.01s0,0,0-.01c-.01-.02-.02-.04-.03-.05-.08-.14-.13-.28-.22-.41-.21-.3-.49-.51-.84-.64-.18-.07-.42.07-.46.26-.05.21.06.39.26.46.02,0,.03.01.05.02.04.02-.08-.04-.02,0,.03.02.06.03.1.05.03.02.06.03.08.05.05.03,0,0-.01-.01.01.01.03.02.04.03.05.05.1.1.15.15.05.06-.04-.05-.01-.02.01.01.02.03.03.04.02.03.04.06.06.1.07.14.13.28.22.4.13.17.3.32.52.36.14.02.26,0,.36-.1.09-.09.14-.24.1-.36-.12-.37-.35-.69-.58-.99-.13-.17-.27-.31-.44-.43-.16-.11-.34-.19-.53-.26-.08-.03-.21,0-.29.04s-.12.1-.15.18c-.07.18,0,.36.15.46.03.02.07.04.1.07.01,0,.03.02.04.03.05.04-.04-.04,0,0,.06.05.11.09.16.14.03.03.05.06.08.09.03.04-.04-.06-.01-.02.01.02.02.03.03.05.04.07.08.14.12.21.18.32.46.54.8.68.05.02.14.02.2,0,.08-.02.14-.07.19-.13.09-.12.11-.29.03-.41-.05-.08-.11-.16-.18-.22-.02-.02-.05-.05-.07-.07-.01-.01-.03-.03-.04-.04-.05-.05.01,0,0,.01,0-.01-.05-.07-.06-.09,0-.02-.02-.03-.03-.05-.03-.06.02.06,0,.01-.02-.07-.05-.14-.07-.21-.06-.18-.14-.34-.27-.48-.14-.15-.35-.25-.56-.25-.19,0-.38.17-.37.37s.16.37.37.37h0Z"/>
      <path d="m248.49,68.88c-1.22-.91-2.35-2.06-3.89-2.42l.26.46c.04-.26.01-.48-.1-.71s-.52-.24-.64,0c-.21.44-.07.94.3,1.25s.85.38,1.29.54c.4.15.77.36,1,.72.26.41.52.87,1.04.96.2.04.4-.05.46-.26.05-.18-.06-.42-.26-.46-.36-.07-.5-.5-.7-.76-.24-.32-.56-.56-.92-.74s-.71-.26-1.07-.39c-.15-.05-.63-.24-.51-.49h-.64s.04.09.03.14c-.03.19.05.41.26.46,1.46.34,2.55,1.47,3.71,2.34.16.12.42.03.51-.13.11-.19.03-.39-.13-.51h0Z"/>
      <path d="m257.49,51.54c-.65.08-1.74-.01-1.82.86-.02.25.26.41.47.36.4-.1.8-.21,1.19-.31l-.47-.36c.05.55-.05,1.1,0,1.64.02.23.06.45.15.66.06.14.22.55.36.61s0-.15-.02-.24c-.04-.15-.06-.3-.08-.46-.03-.28-.04-.57-.05-.86-.03-.51-.11-1-.29-1.48-.09-.23-.23-.5-.18-.75.04-.23.26-.33.34-.55.17-.44-.24-.7-.56-.88-.29-.17-.25-.37-.27-.67,0-.23-.04-.45-.09-.67-.13-.55-.39-1.07-.65-1.57-.22-.44-.83-.05-.64.38.17.39.5.66.92.76l-.26-.26c.25,1.02.41,2.22,1.35,2.85.4.27.77-.38.38-.64-.72-.48-.82-1.64-1.01-2.41-.03-.12-.14-.23-.26-.26-.25-.06-.37-.19-.47-.42l-.64.38c.36.7.6,1.33.64,2.12.01.27.05.53.22.75.18.23.59.29.7.55l-.04-.29c-.03.12-.22.25-.29.38-.09.18-.13.4-.12.6.02.48.29.89.39,1.35.2.88-.04,1.94.43,2.75.42.74,1.38.19,1.25-.56-.08-.45-.42-.76-.46-1.22-.04-.52.06-1.05.01-1.57-.02-.24-.22-.42-.47-.36-.4.1-.8.21-1.19.31l.47.36s1.01-.1,1.08-.11c.47-.06.47-.8,0-.74h0Z"/>
      <path d="m254.04,44.23l.35.17c.05.03.11.05.16.08.01,0,.02.01.04.02.02.01.02,0-.02-.02l.02.02s.02.03,0-.01v.02s.03.03,0-.02c.01,0,.02.07.02.08v.03s.01.04,0-.02c0,.02,0,.05,0,.07.01.13.02.26.03.4.02.29-.01.65.22.86.14.14.36.17.55.12.15-.04.27-.15.37-.27.08-.1.12-.19.1-.31-.02-.12-.08-.21-.18-.27-.42-.27-.83-.55-1.24-.84v.64s.04-.02.05-.04c.03-.03-.08.02,0,0,.04-.01.08-.02.12-.03.09-.02.17-.03.26-.05.22-.06.41-.18.59-.32.15-.12.14-.4,0-.53-.16-.15-.37-.13-.53,0-.04.03,0,.01,0,0,0,.01-.05.03-.06.04-.04.02-.07.04-.11.06s-.01.01.01,0c-.02.01-.05.02-.07.02-.04.01-.08.02-.12.03-.18.04-.37.05-.52.17-.11.08-.18.18-.18.32s.07.24.18.32c.41.28.82.56,1.24.84l-.08-.58s-.03.04-.05.06c0,0-.06.07-.02.03.02-.02.02-.02,0,0l.04-.02s-.03,0,0,0c.03,0,.05,0,.08,0,.04.01.07.04.1.07.01.01.05.09.03.03.01.04,0,.06,0,0,0-.03,0-.06,0-.09-.02-.24-.03-.48-.05-.71-.03-.28-.1-.53-.33-.71-.18-.14-.42-.23-.63-.33-.17-.08-.41-.05-.51.13-.09.17-.05.42.13.51h0Z"/>
      <path d="m260.53,69.36c-.07-.28.03-.47.28-.57.2-.1.26-.44.08-.58-.32-.26-.64-.52-.96-.78-.36-.3-.27-.56-.27-.99l-.69.19c.16.34.36,1.18.81,1.25.18.03.31-.03.42-.17.22-.3-.11-1.5.13-1.59.45-.16.27-.8-.2-.72-.06.17-.06.13,0-.1v-.1c.03-.2.02-.4,0-.61-.06-.41-.22-.77-.46-1.11-.27-.38-.87-.05-.64.38.15.29.31.57.46.86.08.14.15.29.23.43.21-.07.23-.12.06-.15-.16-.19-.47-.06-.61-.32-.12-.23.07-.82.12-1.06h-.72c.14.57.28,1.13.42,1.7.1.41.74.32.73-.1-.02-.87.27-1.67.44-2.51.11-.57.28-1.47-.08-1.98-.26-.37-.75-.33-.99.03-.17.25-.12.56-.12.85,0,.52-.08,1.03-.21,1.53l.55-.22c-.23-.16-.23-.8-.26-1.03-.05-.41-.08-.81-.1-1.22s-.61-.51-.73-.1-.07.76.17,1.1c.1.14.25.21.42.17.76-.18.5-1.4.33-1.93-.35-1.09-.85-2.05-1.01-3.21l-.73.1c.07.16.12.27.2.42.17.28.59.21.68-.09.13-.41.03-.76-.25-1.07s-.77.09-.58.45.37.73.55,1.09c.12.24.51.77.42,1.02-.14.39.51.67.68.29s.4-.88.05-1.24c-.09-.09-.24-.14-.36-.1-.57.19-.85,1.16-.98,1.69-.14.58-.09,1.15.43,1.5.4.27.77-.38.38-.64-.28-.18-.07-.74,0-.96.03-.1.26-.84.37-.87l-.36-.1c-.11.07-.17.18-.17.34l.68.29c.14-.38-.06-.7-.23-1.05-.27-.55-.54-1.1-.82-1.64l-.58.45.06.35.68-.09-.13-.25c-.14-.35-.79-.36-.73.1.1.72.25,1.43.51,2.11.12.33.27.64.4.97.05.13.43,1.31.31,1.34l.42.17c-.15-.15-.18-.32-.1-.52l-.73-.1c.03.85-.06,2.35.72,2.89.2.14.49,0,.55-.22.13-.49.21-.99.23-1.49,0-.16,0-.31,0-.47-.2-.24-.27-.24-.2,0-.07.23.02.67-.02.93-.15.99-.52,1.91-.5,2.92l.73-.1c-.14-.57-.28-1.13-.42-1.7-.09-.35-.64-.36-.72,0-.11.5-.33,1.31-.02,1.77.24.37.99.57,1.39.64,1.39.24-.09-2.01-.27-2.34l-.64.38c.24.34.4.71.4,1.13,0,.24-.12.5-.04.74.14.43.6.45.96.38l-.2-.72c-.32.12-.51.3-.61.63s.21,1.06.03,1.3l.42-.17c.13.14.15.14.07,0l-.14-.3c-.1-.2-.19-.41-.29-.61-.16-.34-.69-.16-.69.19,0,.42-.1.81.15,1.18.3.45.89.78,1.3,1.12l.08-.58c-.54.28-.77.82-.62,1.41.11.47.83.27.72-.2h0Z"/>
      <path d="m258.25,91.59c-.15,2.05-1.3,3.87-1.65,5.88-.08.46.61.67.72.2.24-1.08.9-1.99,1.21-3.05.14-.49.17-1,.19-1.5s.03-1.06.36-1.46l-.62-.16c.04.26-.08.53-.18.77-.1.27-.21.55-.32.82-.19.51-.38,1.02-.56,1.53-.38,1.06-.73,2.14-1.07,3.22-.14.46.58.65.72.2.36-1.16.74-2.31,1.15-3.45.2-.55.4-1.1.61-1.65s.45-1.04.36-1.64c-.04-.27-.45-.37-.62-.16-.74.91-.44,2.03-.69,3.09-.27,1.14-1.01,2.1-1.27,3.25l.72.2c.37-2.08,1.52-3.95,1.68-6.08.04-.48-.71-.48-.74,0h0Z"/>
      <path d="m178.33,4.92l-.55-.43-.26.64c.81.08,1.62.07,2.42.04.75-.03,1.41-.07,2.03-.52.24-.18.48-.38.75-.52.35-.18.73-.11,1.1-.07.72.08,1.37-.1,1.88-.63.34-.34-.19-.87-.53-.53-.61.62-1.25.33-2,.36-.6.02-1.03.33-1.49.67-.25.19-.5.36-.82.42-.35.07-.72.06-1.08.07-.76.02-1.52.03-2.27-.05-.31-.03-.51.44-.26.64l.55.43c.37.29.9-.23.53-.53h0Z"/>
      <path d="m171.97,7.39c.48,0,.48-.74,0-.74s-.48.74,0,.74h0Z"/>
      <path d="m172.45,7.45c.48,0,.48-.74,0-.74s-.48.74,0,.74h0Z"/>
      <path d="m166.8,8.88h-.76c-.1,0-.2.04-.26.11s-.11.17-.11.26c0,.2.16.37.37.37h.76c.1,0,.2-.04.26-.11s.11-.17.11-.26c0-.2-.16-.37-.37-.37h0Z"/>
      <path d="m159.99,12.76c.48,0,.48-.74,0-.74s-.48.74,0,.74h0Z"/>
      <path d="m160.49,12.79c.48,0,.48-.74,0-.74s-.48.74,0,.74h0Z"/>
      <path class="cls-5" d="m247.31,99.39v-3.25l-1.32-3.51-.75-1.88h-1.17l-.22,1.88-.39,4.16-.51,1.68-1.29,2.28h-1.43l-2.65-2.28-2.8-1.01-2.28-.37-2.71.32-1.63.63h-2.57l-3.17-.47-1.5-.53-2.7-.9-2.66-.65-1.69-.29-1.56.43-2.36.5-1.26.37-.37-.6.37-1.18,1.47-1.49.92-1.14,1.34-.95.05-.63-.84-.41-.89.89-.94,1.24h-.84v-1.19l.84-1.04-.95-.3-1.1.71-.95,1.69-.96,1.14-.25,1.77.53,1.12.47,1.58.68.63.21,1-1.1.16-1.26-.37-1,.63-.47.55h-.63l-.32-1.44.16-2.97.63-1.97.95-2.31.42-1.21.99-2.16,1.86-1.83,1.37-.61,1.08-.66-1.08-.33-1.78-.08-1.45.74s-1.69-1.64.28-3.02l2.63-2.26,2.33-2.71,2.7-.6,2.82-1.54,2.77-.23,4.17-1.15,2.59-.51,2.11-.36,1.19-.11,1.19-.32,1.35-.7.87-.49.7-.38.54-.05,1.19-.49-.81-2.11-1.35-2.65-1.08-1.19-.54-.81-.49-1.68.76-2.87,1.25-2.26.76-2.12-.32-1.95-2.27-5.41-.7-2.71-1.32-1.19-1.93-3.41-2.06-2.38-2.54-.81-1.89-1.31h-.49l-2.38.22-1.52-1.14-2.95.05-1.43.05-.6-1.19-1.35.79-1.62-1.27-1.95.54-.76-1.31-1.95.55-.65-.87h-8.82l-2.79.31-8.16,1.15-4.18.9h-4.5l-2.42,1.21-3.35,1.36-2.21.69-4.83,7.85-3,5.54v3.67l4.58,1.18,3.26,1.01v3.38l-4.72,4.27-3.12,3.69-1.04,1.96.69,2.19,3.69.98h4.04l6.12,1.66,10.99,5.44,6.09,8.55.02,7.69-.64,4.54-.75,6.25-.94,4.62-.64,3.53-.5,2.75-.99,2.22v1.95l-.64,1.23-2.93.76-2.54.68s-4.86,5.57,2.28,4.48l2.65-1.39,2.17-.59,1.14-.13,3.16,2.11,4.43,2.61,1.32,1.33,1.79-1.58,2.84-.93,3.1-.79,1.42-.63,1.54-.95,1.87.98,1.63.6h.92l1.31-.72.68-.19s1.16-.19.3,1.37l-.64,1.15-.7,1.29-1.39.59-1.19.84-.65.49h-.82l-.42-.56-.56-.49-.52-.24-.1.77-.56.31-1.35-.21-.43-.66-.03-.73-.52-.52-.56.52-.98.63-1.18.45-1.08.45-.84.59h-.98l-2.2.45h-1.42l-.92-.61-1.82-.16-2.23-.17-2.67.17-.68.45-.77.17-1.64-.14-.73.28-.42.63h-1.12s-1.19-.59-.56-1.78l-1.96-1.75-.1-1.08-1.01-.63-.74-.77-.83-1.12s-1.38-2.83.83-4.89l1.83-4.63,2.46-6.98,1.62-5.14.62-2.02.36-3.96.26-5.07-.4-1.21-5.62-5.69-2.38-1.6-2.72-.38-2.78-.14-3.5-.34-3.91.75-3.6.85-1.83.85-1.15.78h1.36l3.74-1.04,3.83-1.05,2.3-.15,2.35.07,1.24.18,2.09.04,1.46.59,1.14.72,1.57,1.3,1.94,1.83,1.56,1.9,1.17,1.06.75,1.21-.29.49-.79.23-1.88-.23-1.65.23-1.01.23-1.56.11-1.57.07-.73.22-7.36,2.56-.64.55h-2.37l-1.54-.15-1.35-.48-2.12-.15h-3.26l-.73.26-.26.73-.4,1.25-.51,1.06-.62.99-.61,1.06-1.44.22-1.46.18-1.06-.81-.44-1.17-.22-1.32-.18-1.17-.29-1.14-.29-1.72-.62-.62-.76-.78h-1.18l-.18.63-.33,1.21-.51.95-.37.66v8.82l-.36,4.99v4.03l.83,2.87-.17,4.35v1.77l1.08,1.39,2.08,3.12,2,2.67,1.25,3.9.5,2.87,1.62,6.86,1.76,6.87.88,4.07,3.51,5.68,6.07,6.73,3.56,4.72,3.16,2.93,5.63,3.8,2.1,1.84,2.62,1.49,3.62-.62,3.31-.5,4.38.25h3.21l2.43.87h1.38l.07-2.47.43-1.79,2.97.11,1.76.82,2.14.87,4.58.97,3.45.63,1.27-.13,1.94.25,2.29-3.41,1.82-3.24,2.34-2.68,2.91-5.42,2.35-3.08,5.16-7.88,2.89-4.01,4.25-6.96,2.36-3.3,2.4-3.8,1.45-2.5,1.31-3.49v-26.45l.73-4.47-1.11-2.62-.93-3.94Z"/>
      <polygon class="cls-13" points="169.69 155.67 174.03 154.13 179.22 151.97 181.94 151.07 185.82 149.79 189.44 149.41 192.55 149.97 198.97 151.27 201.6 150.78 203.73 149.19 206 148.01 208.39 147.97 210.82 148.77 215.14 150.63 218.57 151.18 219.61 151.47 220.84 151.82 220.29 155.15 218.41 157.21 216.22 159.54 213.6 161.85 211.12 163.73 208.39 165.24 202.54 166.76 196.31 167.06 187.7 166.51 180.69 164.4 177.08 161.97 169.69 155.67"/>
      <polyline class="cls-18" points="189.23 166.61 185.82 164.17 183.02 162.15 178.2 158.74 181.1 158.31 183.1 157.75 189.67 157.75 191.99 157.18 196.56 157.18 198.54 157.07 200.36 156.38 203.08 156.38 204.76 155.87 206.73 155.87 213.36 155.87 210.77 158.03 209.07 161.45 208.88 163.09 210.69 163.96"/>
      <polygon class="cls-9" points="185.34 151.47 189 152.05 192.24 152.05 194.65 151.47 196.03 151.47 196.7 150.81 189.44 149.41 185.82 149.79 181.94 151.07 182.46 151.47 185.34 151.47"/>
      <polygon class="cls-16" points=".55 328.66 3.26 302.54 5.19 287.63 7.41 272.73 10.22 256.3 12.76 246.34 14.2 242.67 15.84 239.45 17.08 238.04 18.23 237.83 20.25 238.23 21.44 238.34 23.02 238.04 24.4 237.37 27.03 235.37 28.66 233.98 31.26 232.22 33.81 230.91 36.28 229.87 37.99 229.22 42.84 227.44 45.2 226.57 55.28 222.87 62.61 220.18 79.21 214.08 87.48 211.05 93.12 208.98 100.35 206.32 107.9 203.55 114.42 201.16 119.46 199.46 125.46 197.88 129.41 197.25 130.68 197.59 132.83 193.06 135.11 188.35 137.02 185 141.65 178.93 143.87 176.71 144.47 178.65 144.06 191.73 144.55 200.48 146.57 216.45 147.73 222.38 151.79 238.03 157.84 251.26 163.58 264.46 168.3 279.08 173.35 294.72 176.94 303.23 178.92 311.94 181.47 317.82 183.18 322.05 184.56 325.65 184.56 326.74 .55 328.66"/>
      <polygon class="cls-16" points="391.96 328.66 389.98 316.62 387.46 305.11 386.52 295.13 383.52 278 382.35 264.27 380.01 251.19 376.94 240.64 374.55 234.44 369.94 231.72 363.6 227.46 348.25 219.95 338.41 216.23 320.76 211.4 306.17 207.25 293.34 203.22 284.13 199.37 275.41 196.97 267.79 194.42 261.06 193.44 258.96 191.25 250.78 182.32 244.85 176.31 243.49 175.38 243.49 196.34 242.28 204.62 236.12 227.85 233.41 235.4 232.41 237.93 231.05 240 226.59 253.53 222.2 271.04 218.24 284.94 214.75 300.34 212.79 309.3 211.18 320 209.44 327.88 391.96 328.66"/>
      <polygon class="cls-15" points="193.08 234.33 189.83 235.64 186.65 240.23 183.71 244.88 181.3 249.18 179.29 253.44 182.85 258.17 185.83 264.44 184.34 270.25 182.09 278.02 180.62 288.12 180.42 294.71 180.46 302.21 180.42 308.06 180.62 314.36 184.56 326.74 209.44 327.88 212.79 309.3 211.04 300.54 210.23 288.62 208.51 278.17 206.1 269.57 202.6 264.41 204.38 259.45 207.91 255.17 199.91 240.73 195.11 235.11 193.08 234.33"/>
      <polygon class="cls-10" points="184.94 242.88 186.62 244.22 186.82 245.5 187.75 245.88 188.52 246.37 188.72 247.81 189.85 248.43 191.14 248.43 191.14 247.71 191.91 246.84 191.91 246.12 191.5 245.66 190.62 245.66 190.42 244.68 190.57 242.88 189.9 242.06 189.85 240.11 189.18 239.49 189.18 237.59 184.94 242.88"/>
      <polygon class="cls-7" points="175.35 259.45 175.83 260.59 176.54 260.91 178.45 259.45 179.89 259.21 180.42 259.45 180.42 260.55 183.18 267.27 184.94 267.89 185.27 265.36 184.56 264.27 184.56 261.49 182.23 252.69 181.69 252.16 181.82 249.3 181.3 249.18 175.35 259.45"/>
      <polygon class="cls-2" points="144.17 187.12 148.34 201.25 148.59 204.97 146.96 210.19 152.81 233.29 153.15 234.52 154.23 235.88 154.23 238.54 153.9 240.03 155.84 244.04 157.16 246.9 157.16 248.43 152.5 239.95 150.67 233.42 145.69 213.12 145.18 209.7 144.66 197.1 144.24 194.77 144.17 194.09 144.17 187.12"/>
      <path d="m165.75,9.72c0-.21.01-.43,0-.64.02-.18,0-.21-.02-.1h.32c.42,0,.84,0,1.26,0,.62,0,1.5.2,1.96-.31.22-.24.43-.43.75-.52s.66.07.96-.05c.26-.1.38-.33.47-.58.15-.4.28-.81.42-1.21l-.46.26c.71.18,1.43.3,2.16.39.47.06.47-.69,0-.74-.66-.08-1.31-.2-1.96-.37-.2-.05-.39.07-.46.26s-.14.4-.21.6c-.05.14-.1.5-.21.6,0,.09-.03.12-.1.08-.08-.01-.16-.02-.24-.03-.15,0-.31,0-.46.04-.31.06-.6.19-.84.38-.12.09-.21.21-.33.31-.17.15-.29.13-.51.13-.84,0-1.69-.05-2.52,0s-.72.83-.71,1.48c0,.48.75.48.74,0h0Z"/>
      <path d="m174.2,6.78c.33.3.86.23,1.1-.15.28-.44,0-.95-.37-1.21l-.09.68c.39-.07.78-.14,1.17-.22s.82-.11,1.2-.23c.34-.1.49-.51.22-.77s-.67-.48-.99-.7l-.09.68c.99-.37,2.04-.49,3.09-.35.2.03.37-.19.37-.37,0-.22-.17-.35-.37-.37-1.11-.15-2.24-.02-3.29.38-.31.12-.36.49-.09.68.15.1.3.21.45.31.08.06.33.17.37.26l-.04-.29-.02.05.17-.22c-.12.08-.37.07-.5.1-.21.04-.42.08-.64.12-.41.08-.81.15-1.22.23-.34.06-.33.51-.09.68.08.05.08.13.12.19-.02-.02.02-.03.06,0-.35-.33-.88.2-.53.53h0Z"/>
      <path d="m180.05,4.55c.56-.11,1.19.2,1.69-.17.2-.15.23-.33.37-.51.68-.86,1.46-.55,2.28-.15.23.11.46.02.55-.22.23-.64.45-1.28.68-1.92l-.72-.2c-.14.97.42,1.74,1.38,1.98,1.1.27,2.28-.22,3.32-.51.76-.21,1.55-.4,2.32-.14.49.17.93.57,1.47.57.56,0,.73-.39,1.16-.64.69-.41,1.6-.25,2.08.42.19.27.56.22.68-.09.28-.73.45-1.47.56-2.25l-.73.1c.18.63.43,1.18.79,1.73.26.4.91.02.64-.38-.33-.49-.56-.99-.72-1.55-.12-.44-.68-.29-.73.1-.09.71-.28,1.38-.53,2.05l.68-.09c-.44-.61-1.07-.99-1.84-1.01-.36,0-.74.06-1.06.22-.17.08-.29.22-.45.3-.5.26-.78.27-1.27.02-.91-.46-1.83-.44-2.8-.2-.79.19-4.52,1.61-4.22-.44.07-.47-.55-.66-.72-.2-.23.64-.45,1.28-.68,1.92l.55-.22c-.83-.4-1.79-.81-2.67-.3-.38.22-.49.59-.81.85-.37.31-.94.1-1.43.2s-.27.81.2.72h0Z"/>
      <path d="m198.27,2.94c.51.16,1.19.52,1.73.44.23-.03.37-.17.57-.27.3-.15.51.04.82.07,1.18.13,1.33-1.76,1.22-2.55-.07-.47-.78-.27-.72.2.11.79-.03,1.66.66,2.23.24.2.54.29.86.25.44-.05.67-.15,1.09.08.56.31,1.03.8,1.68.9.36.06.93-.15,1.19.16.22.26.23.6.52.83.37.3.9-.22.53-.53-.26-.21-.3-.57-.5-.83-.17-.22-.39-.33-.67-.38-.38-.06-.77.08-1.15-.05-.3-.1-.56-.31-.81-.49-.48-.33-.98-.63-1.58-.53-.19.03-.39.14-.59.06s-.32-.35-.38-.55c-.12-.43-.07-.92-.13-1.37l-.72.2c.05.38.06,1.19-.27,1.47-.28.24-.68-.09-1.02-.02-.3.06-.52.37-.83.36-.41-.02-.92-.29-1.31-.41-.46-.15-.65.57-.2.72h0Z"/>
      <path d="m208.07,5.4c1.82.35,3.64.5,5.49.44l-.37-.37c-.01.79.07,1.77.91,2.14.38.17.59.06.97.02s.57-.15.9.2c.12.13.16.33.29.46.19.19.34.24.6.32.4.11.45.12.82.35.1.06.19.11.3.15.55.22,1.13.06,1.71.32.41.19.8.44,1.22.6.38.14.68.13,1.08.14.45.01.13-.19.74.06.44.18.55.39.82.75s.47.67.86.9c.26.15.58.17.78.44.13.17.18.42.28.61.25.45.72.82,1.26.57.61-.28.65-1.1.59-1.67l-.73.1c.42,1.48,1.4,3.45,3.29,2.74.44-.17.25-.89-.2-.72-1.48.55-2.07-1.14-2.38-2.22-.11-.39-.78-.33-.73.1s-.15.97-.56.52c-.16-.17-.19-.47-.36-.67-.15-.17-.29-.23-.47-.36-.42-.07-.76-.31-1-.72-.14-.19-.28-.39-.42-.58-.37-.51-.62-.89-1.3-.8-.46.06-.76.28-1.24.13-.37-.11-.7-.34-1.04-.51-.59-.29-1.07-.28-1.68-.4-.5-.11-.48-.39-.87-.56-.32-.14-.61.05-.92-.23-.4-.35-.36-.84-1.01-.92-.26-.03-.47.11-.71.13-.92.08-1.08-.65-1.07-1.39,0-.2-.17-.38-.37-.37-1.78.06-3.54-.08-5.29-.41-.47-.09-.67.63-.2.72h0Z"/>
      <path d="m229.27,14.51c.2,1.07,1.41,1.57,2.31.97l-.56-.32c-.13,1.95,2.56,1,3.1,2.28.05.11.2.19.32.18l.73,1.09c-.06.14.04.35.17.42.35.18.52.07.88.12,1.15.16,1.2,1.23,1.49,2.2.07.25.33.33.55.22.86-.41,1.84-.63,1.96.8.01.13-.07.24-.04.39.06.34.3.49.58.66.43.26.63.22.9.74.14.27.08.44.29.69.25.29,1.8.77,1.68,1.05-.11.26.02.54.32.56.64.04,1.28.07,1.91.11l-.37-.37c.17,1.36.41,2.62,1.25,3.73s2.29,1.78,2.42,3.16c.02.23.22.44.47.36,1.68-.56,1.08,1.56,1.05,2.38-.02.43.04.82.31,1.17.17.23.42.31.62.51.5.51.63.93.75,1.6.16.98.32,1.96.48,2.94.03.21.28.29.46.26.03,0,.89,1.42,1.23,1.58.61.3,1.27.21,1.8-.19l-.55-.42c-.09.53-.35.99-.76,1.34-.24.21-.05.64.26.64.73-.02,1.46-.04,2.19-.06l-.19-.69c-.83.42-1.61.9-2.36,1.46-.27.2-.22.56.09.68.25.08.48.18.7.31.47.21.61.67.42,1.38-.21.15-.27.51,0,.64l.14.37c-.15.19-.14.57.16.62,1.37.23,2.74.32,4.13.26v-.74c-1.54.09-2.94.51-4.27,1.29-.28.16-.22.59.09.68,1.13.32,2.25.48,3.42.49.41,0,.52-.66.1-.73-2.36-.4-3.52,2.61-1.35,3.78v-.64c-.88.67-1.71,1.47-1.4,2.64.12.46.84.27.72-.2-.22-.82.53-1.4,1.05-1.8.21-.16.27-.5,0-.64-1.32-.71-.77-2.68.78-2.42l.1-.73c-1.11,0-2.16-.16-3.23-.46l.09.68c1.22-.71,2.48-1.1,3.89-1.18.47-.03.48-.77,0-.74-1.33.06-2.63-.01-3.94-.23l.16.62c.42-.54.36-1.21-.29-1.54v.64c1.59-1.16-.09-2.59-1.3-3.05l.09.68c.75-.56,1.52-1.04,2.36-1.46.33-.17.17-.7-.19-.69-.73.02-1.46.04-2.19.06l.26.64c.54-.47.82-.96.95-1.67.05-.28-.26-.64-.55-.42-1.45,1.09-1.42-1.71-2.86-1.47l.46.26c-.21-1.26-.22-2.85-.7-4.05-.13-.33-.31-.44-.53-.71-.38-.46-.23.03-.59-.87-.3-.74-.23-.66-.12-1.32.22-1.37-.64-2.69-2.17-2.18l.47.36c-.03-.36.01-.85-.14-1.19-.19-.41-.92-.85-1.24-1.16-1.41-1.32-2.05-2.64-2.29-4.55-.03-.21-.15-.36-.37-.37-.64-.04-1.28-.07-1.91-.11l.32.56c.32-.74-.13-1.28-.84-1.57-.54-.22-.67-.03-1.06-.74-.09-.16-.08-.35-.18-.5-.26-.39-.68-.37-.99-.65-.41-.36-.04-.4,0-.92.02-.4-.2-.81-.49-1.07-.83-.75-1.95-.3-2.83.11l.55.22c-.23-.76-.35-2.07-1-2.6-.58-.48-1.15.13-1.72-.16l.17.42c.19-.48.16-.95-.13-1.39-.27-.4-.63-.41-.98-.65-.27-.18-.45-.43-.76-.59-.59-.3-2.32-.15-2.26-1.13.02-.28-.33-.47-.56-.32-.64.31-1.05.13-1.22-.53-.09-.47-.8-.27-.72.2h0Z"/>
      <path d="m258.15,55.91c0,.43,0,.86,0,1.29,0,.15.11.33.27.36.38.07.72.1,1.12.08l-.36-.27c.29,1.08-.98,1.84-.1,2.9.73.88,1.93.7,2.91.49.4-.09.32-.79-.1-.73-3.82.51-2.42,6.56.85,6.87.41.04.51-.67.1-.73-.95-.13-1.9-.27-2.85-.4-.27-.04-.54.16-.46.46.34,1.2,1.15,2.02,2.35,2.37v-.72c-2.52.92-1.88,4.1-1.81,6.2.1,3.3.06,6.61-.14,9.91s-.4,6.7-1.17,9.92c-.69,2.92-2.58,5.2-3.46,8.01-.14.46.57.65.72.2.77-2.44,2.43-4.45,3.17-6.92.8-2.68,1.04-5.54,1.28-8.32.26-2.97.39-5.95.4-8.93,0-1.45-.02-2.9-.07-4.35-.06-1.57-.62-4.3,1.28-5,.33-.12.37-.61,0-.72-.95-.28-1.56-.9-1.83-1.85l-.46.46c.95.13,1.9.27,2.85.4l.1-.73c-2.27-.21-3.71-5-.85-5.38l-.1-.73-.42.09c-.67.29-1.08.06-1.22-.71-.86-1.42-.36-.39-.3-1.17.03-.41.16-.65.04-1.08-.04-.15-.2-.28-.36-.27-.31.04-.61.02-.92-.06l.27.36c0-.43,0-.86,0-1.29,0-.48-.75-.48-.74,0h0Z"/>
      <path d="m255.6,101.25c-.92-6.62-1.85-13.25-2.77-19.87-.23-1.62-.45-3.24-.68-4.86s-.26-3.33-.71-4.86c-.28-.94-.86-1.34-1.79-1.54-1.63-.35-2.82-.72-3.62-2.33-.12-.24-.41-.21-.58-.08-1.09.86-1.28-1.06-1.31-1.47-.03-.38-.02-.77,0-1.15.05-.89.22-1.78.35-2.66.21-1.42.36-2.84.39-4.27.07-2.99-.32-5.97-1.07-8.86-.12-.46-.84-.27-.72.2,1.17,4.44,1.28,8.9.58,13.42-.22,1.43-.65,3.29-.02,4.67.44.97,1.47,1.32,2.32.65l-.58-.08c.43.89,1.09,1.62,1.96,2.1.43.24.89.38,1.37.48.32.06.81.02,1.08.16.46.23.85.84.99,1.32.43,1.48.45,3.22.67,4.74.24,1.7.48,3.41.71,5.11.9,6.46,1.8,12.92,2.71,19.39.07.47.78.27.72-.2h0Z"/>
      <path d="m236.03,34.68c1.47,2.43,3.03,4.83,4.34,7.36s2.72,5.09,2.94,7.9c.04.47.78.48.74,0-.22-2.78-1.55-5.33-2.79-7.78-1.37-2.71-3.03-5.26-4.6-7.86-.25-.41-.89-.04-.64.38h0Z"/>
      <path d="m237.17,33.85c-.45-.73-1.01-1.24-1.79-1.6-.15-.07-.33-.07-.45.06-.76.76-1.51,1.52-2.27,2.29l.62.16c-.07-.4-.04-1.11-.35-1.41-.35-.34-1.26-.43-1.73-.5-1.32-.21-2.62-.05-3.88.38l.47.36c-.09-1.18-.73-2.47-2.02-2.67-1.07-.17-2.12.53-2.31,1.6l.73.1c.03-.87.05-1.74.08-2.61.01-.35-.4-.45-.64-.26-1.78,1.44-3.6-.67-4.61-1.96-.18-.23-.56-.08-.62.16-.25.98-.51,1.95-.76,2.93l.73.1c-.03-1.02-.07-2.04-.1-3.06,0-.26-.23-.4-.47-.36-2.62.49-4.97,1.7-6.9,3.53l.53.53c1.31-1.24,2.43-2.62,3.38-4.15.16-.27-.11-.65-.42-.55-2.85.99-6.8,1.66-8.64,4.31l.68.29c.45-1.48.89-2.95,1.34-4.43.1-.33-.27-.55-.55-.42-2.71,1.32-5.16,3.04-7.3,5.16l.58.45c.71-1.25,1.42-2.49,2.13-3.74.2-.35-.19-.65-.51-.51l-3.18,1.37.38.64c1.18-.66,2.09-1.57,2.75-2.75.12-.21.01-.48-.22-.55-4.49-1.25-7.44,3.33-11.33,4.52l.36.62c1.45-1.34,2.57-2.89,3.39-4.69.15-.34-.16-.68-.51-.51-1.71.84-3.4,1.71-5.08,2.61l.51.51c.84-1.89,1.92-3.62,3.27-5.19.26-.3-.07-.82-.45-.58-6.15,3.86-13.09,5.27-20.08,6.77-3.59.77-7.18,1.54-10.77,2.32-2.94.63-6.04,1.07-8.75,2.44-4.15,2.09-7.18,6.11-8.44,10.54-.62,2.19-.82,4.5-.5,6.75.41,2.91,2.08,5.4,2.59,8.27.37,2.1-.38,3.88-1.35,5.71-.87,1.64-1.82,3.22-2.86,4.76-2.06,3.04-4.46,5.84-7.11,8.38-.35.33.18.86.53.53,4.38-4.18,8.36-9.24,10.84-14.79,1.25-2.8.72-5.28-.38-8.03-1.03-2.59-1.8-5.06-1.64-7.88.3-5.14,3.16-10.19,7.55-12.94,2.65-1.66,5.76-2.16,8.77-2.81,3.43-.74,6.86-1.48,10.29-2.21,7.52-1.62,15.08-3,21.7-7.16l-.45-.58c-1.39,1.62-2.52,3.4-3.38,5.35-.15.33.16.7.51.51,1.68-.9,3.37-1.77,5.08-2.61l-.51-.51c-.79,1.74-1.88,3.24-3.28,4.54-.27.25.01.73.36.62,3.68-1.12,6.74-5.69,10.93-4.52l-.22-.55c-.61,1.08-1.41,1.88-2.49,2.48-.43.24-.05.83.38.64l3.18-1.37-.51-.51c-.71,1.25-1.42,2.49-2.13,3.74-.21.37.28.75.58.45,2.11-2.07,4.5-3.75,7.15-5.04l-.55-.42c-.45,1.48-.89,2.95-1.34,4.43-.13.42.45.62.68.29.89-1.28,2.29-1.9,3.72-2.42s2.98-1.03,4.47-1.55l-.42-.55c-.91,1.48-1.99,2.81-3.26,4-.35.33.18.85.53.53,1.85-1.74,4.08-2.87,6.58-3.34l-.47-.36c.03,1.02.07,2.04.1,3.06.01.41.62.52.73.1.25-.98.51-1.95.76-2.93l-.62.16c1.33,1.71,3.52,3.7,5.66,1.96l-.64-.26c-.03.87-.05,1.74-.08,2.61-.01.41.66.52.73.1.15-.86,1.06-1.34,1.87-.93.67.34.94,1.11,1,1.8.02.23.23.44.47.36.96-.33,1.94-.5,2.96-.43.46.03,1.11.05,1.53.28.48.26.45.64.54,1.16.05.28.44.35.62.16.76-.76,1.51-1.52,2.27-2.29l-.45.06c.68.32,1.12.7,1.52,1.34.25.41.9.03.64-.38h0Z"/>
      <path d="m125.85,99.95c4.47,2.22,4.84,7.81,5.49,12.16.75,5.05,1.49,10.1,2.24,15.15.07.44.69.29.73-.1.38-3.94-.78-7.8-1.14-11.7s-.29-7.82-.02-11.71c.55-7.86,1.88-15.66,2.22-23.54.02-.48-.72-.48-.74,0-.34,7.88-1.67,15.67-2.22,23.54-.27,3.82-.34,7.66,0,11.48s1.54,7.93,1.16,11.94l.73-.1c-.82-5.54-1.64-11.08-2.46-16.62-.62-4.18-1.41-9.05-5.61-11.14-.43-.21-.81.43-.38.64h0Z"/>
      <path d="m126.32,99.85c-.76-4.04-1.28-8.13-1.55-12.23-.06-.97-.11-1.95-.14-2.92-.02-.68.1-1.58-.11-2.23-.23-.71-1.02-.88-1.4-.23l.68.29c.71-2.08,1.02-4.26.82-6.46-.12-1.36-.22-3.57-1.67-4.21l.13.51c1.31-2.24,1.79-4.74,1.43-7.31-.05-.35-.52-.32-.68-.09-.28.41-.56.81-.84,1.22l.64.38c1.66-3.73,1.51-7.77,1.26-11.76-.03-.48-.77-.48-.74,0,.24,3.83.44,7.8-1.16,11.38-.19.43.37.78.64.38s.56-.81.84-1.22l-.68-.09c.33,2.37-.15,4.67-1.36,6.73-.09.16-.05.43.13.51,1.41.61,1.37,3.65,1.37,4.9,0,1.69-.31,3.33-.85,4.92-.14.41.47.64.68.29-.09.15.09.91.1,1.11,0,.33.02.65.03.98.03.73.06,1.46.1,2.19.09,1.54.21,3.08.37,4.62.3,2.86.72,5.71,1.25,8.54.09.47.81.27.72-.2h0Z"/>
      <path d="m124.98,54.87c-.07-1.16.16-2.25.79-3.24.33-.51.88-1,.91-1.65.04-1.06-1.01-1.32-1.86-1.37l.36.47c.6-1.86,1.72-3.17,3.29-4.29,1-.71.43-1.61-.01-2.59l-.22.55c.53-.08.85-.39,1.06-.88.11-.27.13-.54.17-.83.1-.78.24-.96.8-1.47.23-.22.42-.28.61-.55.24-.33.28-.77.51-1.09.38-.52.97-.55,1.29-1.12s.55-1.02.97-1.51c.19-.23.35-.4.51-.66.43-.72.57-1.55.67-2.37.04-.35-.01-.83.1-1.17.33-.95.72-.79,1.38-1.11s1.06-.76,1.22-1.47c.1-.47-.61-.67-.72-.2-.3,1.38-1.5.88-2.25,1.57-.33.31-.33.79-.37,1.21-.09.86-.1,1.75-.39,2.58-.32.9-1.08,1.34-1.53,2.12-.17.29-.24.53-.48.79-.2.21-.44.26-.64.46-.4.4-.47.88-.75,1.35-.36.59-1.07.72-1.4,1.32-.35.63,0,2.19-.95,2.33-.26.04-.31.35-.22.55.45,1.01.37,1.44-.49,2.11-.47.37-.89.78-1.27,1.24-.73.88-1.24,1.87-1.59,2.96-.08.24.13.46.36.47,1.94.11.22,1.94-.11,2.7-.4.9-.53,1.85-.47,2.83.03.48.77.48.74,0h0Z"/>
      <path d="m136.8,29.03c.62.13,1.14-.09,1.43-.69.16-.33.05-.72.19-1.03l.98-.96c.11.05.21.1.32.15.18.01.43.14.62.17.21.03.39-.05.46-.26.12-.37.16-.71.22-1.09.14-.96.55-1.33,1.42-1.64.94-.33,1.86-1.13,2.83-1.19.29-.02.53-.41.26-.64-.56-.48-1.1-.76-1.83-.89v.72c1.46-.21,3.57.65,4.34-1.14.1-.22.03-.47-.22-.55-.55-.17-1.09-.28-1.65-.35v.74c.93.02,2.69-.03,3.27-.91.39-.58.06-1.24-.63-1.23l.1.73c.88-.3,3.68-.37,2.55-2.13l-.22.55c.73-.17,2.22-.19,2.75-.76.48-.52.02-1.53-.11-2.1l-.46.46c.74.21,1.56.43,2.33.25,1.03-.24,1.56-1.24,2.5-1.67.52-.23,3.05-1.37,1.85-2.3-.12-.09-.31-.16-.45-.06l-.06.05c-.24.18-.25.59.09.68.66.18,2.39.72,2.98.2.52-.46.02-.99-.39-1.25v.64c.79-.49,1.6-.78,2.51-.91.12-.02.23-.15.26-.26l.48-.77c.36-.32-.17-.84-.53-.53-.49.44-.55.77-1.2.98-.69.22-1.29.46-1.91.85-.24.15-.24.49,0,.64-.15-.09-.67-.04-.86-.07-.4-.05-.76-.14-1.15-.24l.09.68.06-.05-.45-.06c.36.28-1.52,1.04-1.67,1.11-.36.15-.66.32-.96.57-.57.49-.74.95-1.65,1.08-.56.08-1.16-.13-1.69-.28-.28-.08-.52.19-.46.46.06.29.13.59.19.88.14.48-.02.7-.49.65-.47.26-1.3.3-1.82.42-.23.05-.35.35-.22.55l-.86.82c-.15,0-.29.01-.44.03-.26.09-.54.09-.8.18-.38.13-.34.74.1.73-.33,0-.87.46-1.26.54-.46.09-.92.11-1.38.11-.49,0-.46.69,0,.74.52.06.97.17,1.46.32l-.22-.55c-.6,1.39-2.7.63-3.89.8-.36.05-.35.65,0,.72.59.11,1.04.3,1.5.7l.26-.64c-.64.04-1.16.19-1.69.53-.68.43-1.32.6-2.02.93-1.33.62-1.07,1.8-1.47,3l.46-.26c-.71-.1-1.38-.73-2.11-.33-.58.32-1.08,2.76-1.43,2.69-.47-.1-.67.62-.2.72h0Z"/>
      <path d="m136.37,144.99c1.76,7.5,5.16,14.32,9.31,20.77s8.77,12.59,13.76,18.4c.31.36.84-.16.53-.53-4.95-5.77-9.53-11.86-13.65-18.25s-7.49-13.15-9.23-20.59c-.11-.47-.83-.27-.72.2h0Z"/>
      <path d="m144.16,164.17c-.46,4.39-.17,8.82.83,13.12.11.47.83.27.72-.2-.99-4.24-1.26-8.59-.81-12.92.05-.48-.69-.47-.74,0h0Z"/>
      <path d="m143.78,177.42s.03-.07.04-.11l-.04.09c.09-.21.2-.41.34-.6,0-.01.04-.05,0,0s0,0,0,0c.02-.02.04-.05.06-.07.04-.04.07-.08.11-.13.08-.08.17-.16.26-.24l-.64-.26c0,.29,0,.58.01.87,0,.19.17.38.37.37s.37-.16.37-.37c0-.29,0-.58-.01-.87,0-.15-.09-.28-.23-.34-.15-.06-.29-.02-.41.08-.44.36-.77.85-.97,1.38-.03.09,0,.21.04.29s.13.15.22.17c.21.05.38-.06.46-.26h0Z"/>
      <path d="m243.18,173.7c.11-1.24-.15-2.48-.05-3.72s.45-2.39.35-3.61c-.04-.47-.78-.48-.74,0,.1,1.22-.25,2.4-.35,3.61s.16,2.48.05,3.72c-.04.48.7.47.74,0h0Z"/>
      <path d="m243.5,166.23c.45-1.96.9-3.94,1.63-5.82s1.98-3.67,2.92-5.54c1.73-3.44,2.76-7.17,3.78-10.87.13-.46-.59-.66-.72-.2-1.07,3.89-2.15,7.83-4.08,11.41-.9,1.67-1.94,3.23-2.63,5.01-.73,1.88-1.18,3.86-1.63,5.82-.11.47.61.67.72.2h0Z"/>
      <path d="m242.24,165.77c-1.04,3.23-3.45,5.74-4.79,8.82-.33.74-.55,1.55-.99,2.23-.48.74-1.14,1.33-1.78,1.93-1.5,1.41-2.99,2.81-4.49,4.22-.35.33.18.85.53.53,1.54-1.45,3.07-2.89,4.61-4.34.58-.54,1.15-1.08,1.61-1.73.5-.7.75-1.51,1.08-2.29,1.34-3.23,3.86-5.81,4.94-9.17.15-.46-.57-.65-.72-.2h0Z"/>
      <path d="m159.54,184.26c3.35,3.88,7.12,7.48,11.63,9.97,2.23,1.23,4.62,2.19,7.11,2.74,2.64.59,5.36.24,7.98.8s4.86,1.62,7.47,1.89c2.77.29,5.18-.4,7.81-1.14s5.37-.38,8.03-.98,5-1.83,7.36-3.02c2.6-1.31,5.1-2.71,7.35-4.57,2.4-1.98,4.52-4.28,6.62-6.57.32-.35-.2-.88-.53-.53-3.55,3.85-7.13,7.48-11.79,9.97-2.35,1.26-4.76,2.55-7.28,3.43-1.32.46-2.67.77-4.06.87-1.3.09-2.6.04-3.9.22-2.49.36-4.76,1.51-7.3,1.63-2.77.14-5.37-.62-7.97-1.47s-4.96-.59-7.53-.91-5.11-1.11-7.46-2.23c-5.13-2.45-9.34-6.37-13.02-10.64-.31-.36-.84.17-.53.53h0Z"/>
      <path d="m130.69,197.93c-2.07,4.3-4.14,8.6-5.81,13.08s-2.77,9.3-3.47,14.15c-1.45,9.94-3.65,19.63-7.21,29.04-.69,1.81-1.95,4-1.28,5.99.59,1.77,2.62,2.86,4.09,3.81,3.75,2.43,7.91,4.25,12.23,5.36.56.14,1.13.26,1.7.4.13.03.49.07.58.15l.08.85c.27.49.21.86-.19,1.12-.57.89-1.87,1.71-2.66,2.39-1.89,1.64-3.85,3.19-5.88,4.67s-3.91,2.73-5.95,3.98c-1.7,1.04-3.49,1.96-5.11,3.14-1.42,1.03-2.74,2.28-3.41,3.93-.8,1.99-.42,4.12.5,6,1.12,2.29,2.91,4.23,4.52,6.18,1.87,2.27,3.74,4.53,5.61,6.8.3.37.83-.16.53-.53-1.61-1.95-3.22-3.9-4.83-5.86s-3.28-3.75-4.56-5.86-2.02-4.48-.94-6.76c.85-1.79,2.53-3.04,4.16-4.07,3.69-2.33,7.44-4.48,10.94-7.11,1.75-1.32,3.46-2.69,5.12-4.13.84-.73,1.71-1.45,2.49-2.25.48-.49,1.04-1.1,1.01-1.84-.06-1.46-2.06-1.56-3.09-1.81-2.3-.57-4.55-1.33-6.72-2.28s-4.05-1.99-5.94-3.22c-.95-.62-2.02-1.26-2.8-2.08-1.23-1.3-.96-2.83-.4-4.37,1.65-4.51,3.3-8.97,4.57-13.61s2.3-9.49,3.04-14.31c.8-5.25,1.52-10.44,3.22-15.5s4.13-10.13,6.5-15.05c.21-.43-.43-.81-.64-.38h0Z"/>
      <path d="m118.16,308.25c4.96,7.25,10.81,13.84,17.44,19.6.36.31.89-.21.53-.53-6.58-5.72-12.4-12.26-17.32-19.45-.27-.39-.91-.02-.64.38h0Z"/>
      <path d="m262.69,262.65c3.6,3.72,7.12,7.53,10.53,11.43,1.68,1.92,3.34,3.86,4.97,5.82.82.98,1.63,1.97,2.43,2.96.43.53,1.04,1.1,1.18,1.78.19.93-.6,2-1.02,2.79-4.77,9.12-10.33,17.79-15.75,26.53-2.91,4.69-5.61,9.68-9.49,13.66-.33.34.19.87.53.53,3.55-3.63,6.07-8.09,8.73-12.38,2.9-4.68,5.82-9.35,8.69-14.06s5.63-9.44,8.17-14.32c.39-.75.97-1.61.93-2.49-.05-1.02-.83-1.81-1.43-2.56-1.76-2.17-3.54-4.31-5.36-6.43-4.05-4.72-8.24-9.31-12.57-13.78-.33-.34-.86.18-.53.53h0Z"/>
      <path d="m262.63,261.69c3.48-4.38,8.38-7.11,13.24-9.7,1.16-.61,2.32-1.22,3.47-1.85s2.42-1.17,3.4-1.98c.73-.6.74-1.32.39-2.15-.54-1.27-1.29-2.47-1.88-3.73-4.98-10.67-6.84-22.43-10.85-33.45-1.04-2.86-2.23-5.68-3.64-8.39s-2.85-5.51-5.28-7.28c-.39-.28-.76.36-.38.64,2.3,1.68,3.72,4.54,5.01,7.02s2.33,4.9,3.28,7.43c1.92,5.12,3.34,10.41,4.81,15.68s2.94,10.41,4.97,15.41c.45,1.11.93,2.22,1.44,3.31.29.62.59,1.24.9,1.86s.92,1.37,1.04,2.03c.24,1.32-2.52,2.37-3.41,2.86-1.21.66-2.42,1.3-3.64,1.95-4.91,2.61-9.87,5.39-13.39,9.81-.3.37.23.9.53.53h0Z"/>
      <path d="m262.39,262.32c.48,0,.48-.74,0-.74s-.48.74,0,.74h0Z"/>
      <path d="m369.58,235.68c-2.5,11.78-5.12,23.51-9.31,34.83-2.14,5.76-4.32,11.48-6.01,17.4s-3.06,11.74-4.51,17.62c-1.67,6.76-3.33,13.51-5,20.27-.11.46.6.66.72.2,2.92-11.86,5.65-23.78,8.86-35.56,3.2-11.75,8.26-22.87,11.39-34.64,1.75-6.58,3.17-13.25,4.58-19.91.1-.47-.62-.67-.72-.2h0Z"/>
      <path d="m123.18,123.09c.61,1.05,1.22,2.11,1.84,3.16.44.75.97,1.55,1.79,1.93.98.45,2,.02,3.01.2s1.8.77,2.29,1.62c.24.41.88.04.64-.38-.44-.77-1.12-1.37-1.93-1.72-.43-.18-.89-.29-1.36-.32-.55-.03-1.09.1-1.63.07-1.05-.05-1.64-.92-2.13-1.74-.63-1.07-1.25-2.15-1.87-3.22-.24-.41-.88-.04-.64.38h0Z"/>
      <path d="m123.87,122.52c-1.24-2.52-1.18-5.58.14-8.06l-.64-.38c-.2.43-.13.91.21,1.26.37.38.93.46,1.44.51,1.31.11,2.64-.11,3.86-.61.44-.18.24-.9-.2-.72-.82.34-1.69.56-2.58.6-.32.02-2.42.08-2.08-.67.19-.43-.41-.81-.64-.38-1.46,2.73-1.5,6.04-.14,8.81.21.43.85.05.64-.38h0Z"/>
      <path d="m260.85,116.56c.1,3,0,7.41-3.69,8.23-.33.07-.35.52-.09.68,1.98,1.25.17,5.02.06,6.82-.1,1.58.38,3.24,1.79,4.09.41.25.79-.4.38-.64-2.18-1.32-1.31-4.25-.9-6.24.33-1.56.62-3.68-.95-4.67l-.09.68c4.04-.9,4.34-5.6,4.23-8.95-.02-.48-.76-.48-.74,0h0Z"/>
      <path d="m255.29,101.64c-.33,4.12-.12,8.25.61,12.31.08.47.8.27.72-.2-.71-4-.9-8.07-.58-12.12.04-.48-.71-.47-.74,0h0Z"/>
      <path d="m254.95,101.47c-.01.09-.01.19,0,.28.01.12.03.25.06.36.03.09.09.17.17.22.04.03.09.04.14.04.05.01.1,0,.15,0,.09-.03.18-.08.22-.17s.07-.19.04-.29c-.02-.07-.03-.13-.04-.2v.1c0-.11,0-.23,0-.35,0-.05,0-.1-.03-.14-.02-.05-.04-.09-.08-.12-.06-.06-.17-.11-.26-.11s-.2.04-.26.11l-.06.08c-.03.06-.05.12-.05.19h0Z"/>
      <path d="m255.17,102.43l-.03.56c0,.09.04.2.11.26s.17.11.26.11.2-.04.26-.11l.06-.08c.03-.06.05-.12.05-.19.03-.24,0-.5-.05-.73-.02-.09-.09-.18-.17-.22s-.2-.07-.29-.04-.18.08-.22.17-.06.19-.04.29c.02.07.03.13.04.2v-.1c0,.14,0,.29-.01.43h.74l.03-.56c0-.09-.04-.2-.11-.26s-.17-.11-.26-.11-.2.04-.26.11-.1.16-.11.26h0Z"/>
      <path d="m184.58,134.15c-.91.11-4.15-.09-2.31-1.89.48-.47,1.3-.72,1.93-.89,1.35-.35,2.81-.28,4.13.18,2.48.87,3.59,3.81,6.24,4.2s4.81-1.28,6.5-3.06c2.46-2.59,5.84-2.13,8.68-.39v-.64c-2.53,1.07-5.28,1.19-7.9.38-.46-.14-.66.58-.2.72,2.83.87,5.75.69,8.48-.46.27-.11.21-.51,0-.64-2.51-1.54-5.97-2.39-8.53-.48-.78.58-1.35,1.38-2.07,2.03-.87.79-1.94,1.42-3.09,1.7-1.36.32-2.63.09-3.69-.84-.69-.61-1.23-1.36-1.94-1.95-2.2-1.83-5.47-2.25-8.06-1.02-1.03.48-2.19,1.36-1.62,2.63.61,1.35,2.19,1.32,3.43,1.16.47-.06.47-.8,0-.74h0Z"/>
      <path d="m210.76,119.58c-.15,1.7,1.09,2.87,2.07,4.07,1.25,1.54,1.45,3.45,1.12,5.36-.28,1.62-.82,3.72-2.62,4.21-.89.25-1.92.18-2.83.14-1.11-.05-2.2-.2-3.29-.43-.47-.1-.67.62-.2.72,2,.42,4.37.79,6.4.32,1.75-.41,2.57-2.01,3-3.62.47-1.75.67-3.71.02-5.44-.71-1.87-3.12-3.18-2.93-5.33.04-.48-.7-.47-.74,0h0Z"/>
      <path d="m178.65,122.12c-1.39,3.08-2.85,6.48-1.79,9.89.42,1.36,1.3,2.75,2.59,3.44,1.57.83,3.16-.02,4.49-.9.4-.26.03-.91-.38-.64-1.37.89-2.9,1.7-4.34.48-1-.84-1.59-2.07-1.84-3.34-.6-2.98.71-5.9,1.91-8.56.2-.43-.45-.81-.64-.38h0Z"/>
      <path d="m170.09,155.6c4.43-.74,8.24-3.2,12.46-4.59,2.29-.76,4.72-1.21,7.13-1.23s4.83,1.19,7.3,1.62c1.83.32,3.65.6,5.26-.5,1.84-1.25,3.13-2.76,5.54-2.76,2.26,0,4.06,1.46,6.07,2.28s4.23,1.22,6.44,1.19l-.37-.37c-.22,2.49-3.78,2.93-5.69,3.27-2.17.39-4.35.74-6.54,1.07-4.33.64-8.69,1.15-13.06,1.46s-8.48.43-12.72.32c-2.12-.06-4.24-.17-6.35-.35s-4.02-.38-5.67-1.64c-.38-.29-.75.36-.38.64,1.51,1.15,3.33,1.48,5.18,1.66,2.4.24,4.81.36,7.22.43,4.9.13,9.8-.06,14.68-.47s9.5-1.02,14.22-1.79c2.28-.37,4.74-.58,6.92-1.41,1.47-.56,2.8-1.53,2.94-3.19.02-.2-.18-.37-.37-.37-2.56.03-5.03-.52-7.32-1.67-1.67-.84-3.25-1.8-5.19-1.8s-3.41.78-4.81,1.95c-.96.8-1.8,1.55-3.13,1.61s-2.77-.25-4.07-.56c-2.26-.54-4.21-1.43-6.57-1.34s-4.65.51-6.85,1.24c-4.22,1.39-8.03,3.85-12.46,4.59-.47.08-.27.8.2.72h0Z"/>
      <path d="m169.53,156.42c2.21.66,3.99,1.89,5.54,3.58,1.35,1.48,2.61,2.87,4.37,3.87s3.79,2,5.81,2.56c2.15.6,4.45.66,6.67.81,4.57.32,9.28.29,13.81-.52,3.98-.71,7.41-3.66,10.26-6.37,1.62-1.54,3.1-3.24,4.36-5.09.81-1.2,2-3.02.4-4.1-.4-.27-.77.37-.38.64.32.22.35,1.25.24,1.55-.08.23-.21.43-.33.64-.21.37-.46.72-.7,1.07-.63.91-1.31,1.78-2.04,2.61-1.23,1.39-2.58,2.67-4,3.86s-3.01,2.44-4.7,3.34c-1.93,1.03-3.99,1.26-6.13,1.46-4.09.39-8.1.37-12.2.06-2.15-.16-4.29-.32-6.33-1.1-1.79-.68-3.65-1.53-5.24-2.6-1.77-1.19-2.94-2.98-4.51-4.4-1.35-1.22-2.96-2.08-4.7-2.59-.46-.14-.66.58-.2.72h0Z"/>
      <path d="m226.28,138.98c1.83,1.9,3.65,3.96,4.57,6.47.86,2.34.86,5.04-.55,7.17-.16.24.23.46.39.23,1.43-2.15,1.49-4.91.67-7.31-.92-2.68-2.82-4.87-4.75-6.88-.2-.21-.52.11-.32.32h0Z"/>
      <path d="m169.04,148.45c-1.02,1.03-2.13,1.98-3.31,2.81-.16.11,0,.37.15.26,1.21-.85,2.34-1.81,3.37-2.86.13-.14-.08-.35-.21-.21h0Z"/>
      <path d="m168,150.59c-.47,1.96-1.32,3.81-2.5,5.46-.11.16.15.3.26.15,1.19-1.66,2.05-3.54,2.53-5.53.04-.19-.24-.27-.29-.08h0Z"/>
      <path d="m191.89,142.1l-3.99,3.21c-.15.12.06.33.21.21l3.99-3.21c.15-.12-.06-.33-.21-.21h0Z"/>
      <path d="m187.56,143.09c-.29.9-.71,1.75-1.26,2.52-.11.16.15.31.26.15.56-.79.99-1.67,1.29-2.59.06-.18-.23-.26-.29-.08h0Z"/>
      <path d="m199.16,142.45c1.21.94,2.14,2.22,2.64,3.67.06.18.35.1.29-.08-.51-1.5-1.46-2.83-2.71-3.8-.15-.12-.36.09-.21.21h0Z"/>
      <path d="m226.98,147.29c.56,1.33,1.11,2.67,1.67,4,.07.17.36.1.29-.08-.56-1.33-1.11-2.67-1.67-4-.07-.17-.36-.1-.29.08h0Z"/>
      <path d="m222.57,145.13c1.64,1.71,2.91,3.75,3.73,5.98.07.18.35.1.29-.08-.83-2.28-2.13-4.36-3.81-6.11-.13-.14-.34.07-.21.21h0Z"/>
      <path d="m224.48,145.65c.63,1.66,1.22,3.34,1.78,5.02.06.18.35.1.29-.08-.56-1.69-1.16-3.36-1.78-5.02-.07-.18-.35-.1-.29.08h0Z"/>
      <path d="m220.51,144.97c.93.6,1.78,1.33,2.52,2.17.13.14.34-.07.21-.21-.75-.85-1.62-1.59-2.58-2.21-.16-.1-.31.15-.15.26h0Z"/>
      <path d="m217.52,144.69c.58.38.98,1.03,1.05,1.73,0,.08.06.15.15.15.07,0,.16-.07.15-.15-.08-.8-.52-1.54-1.2-1.98-.16-.11-.31.15-.15.26h0Z"/>
      <path d="m208.08,142.92c0,.66.2,1.33.61,1.86.07.1.14.17.27.21.11.03.25.02.34-.05s.18-.15.21-.27.03-.25-.05-.34c-.09-.12-.17-.24-.24-.37-.03-.06-.06-.11-.08-.17-.02-.04-.01-.03.01.03,0-.02-.01-.03-.02-.05-.01-.03-.03-.07-.04-.1-.04-.13-.08-.26-.1-.4,0-.02,0-.04,0-.05,0,.07.01.09,0,.04,0-.04,0-.07-.01-.11,0-.07,0-.15,0-.22,0-.23-.21-.46-.45-.45s-.44.2-.45.45h0Z"/>
      <path d="m209.25,143.11c-.12.66.08,1.33.61,1.75.18.14.45.2.63,0,.06-.07.12-.14.18-.2l-.75-.2c.11.5.35.93.69,1.32.26.3.76.06.76-.32,0-.61-.18-1.19-.54-1.69-.33-.46-1.1-.03-.77.45.41.59.89,1.09,1.47,1.52.23.17.59,0,.66-.27.19-.78-.02-1.57-.59-2.14-.35-.35-.97.1-.7.54.42.68.98,1.23,1.65,1.66.25.16.57,0,.66-.27s.08-.51-.02-.75l-.75.43c.32.38.75.63,1.23.73.26.05.59-.12.57-.43-.08-.85-.23-1.68-.47-2.5-.17-.57-.94-.32-.86.24.13.93.6,1.79,1.31,2.41.19.17.58.19.7-.09.18-.41.09-.78-.28-1.04-.42-.29-.91.36-.54.7.34.32.72.6,1.12.83.3.17.66-.05.67-.39,0-.22.02-.45.03-.67l-.83.23c.3.55.82.95,1.44,1.07.29.06.55-.13.57-.43,0-.17.02-.34.03-.51l-.76.32c.13.13.26.26.4.39.41.4,1.04-.23.63-.63-.13-.13-.26-.26-.4-.39-.29-.28-.74-.07-.76.32,0,.17-.02.34-.03.51l.57-.43c-.41-.08-.71-.29-.9-.66-.22-.41-.81-.2-.83.23,0,.22-.02.45-.03.67l.67-.39c-.34-.2-.65-.42-.94-.69l-.54.7c-.06-.05-.08-.11-.04-.18l.7-.09c-.61-.53-.97-1.22-1.08-2.02l-.86.24c.22.74.37,1.49.44,2.26l.57-.43c-.35-.07-.61-.23-.84-.5-.28-.33-.92.02-.75.43.05.12.06.16.02.28l.66-.27c-.54-.35-.99-.8-1.33-1.34l-.7.54c.34.34.48.8.36,1.27l.66-.27c-.45-.33-.84-.74-1.15-1.2l-.77.45c.27.37.42.77.42,1.24l.76-.32c-.24-.27-.38-.58-.46-.92-.07-.32-.52-.44-.75-.2-.06.07-.12.14-.18.2h.63c-.28-.21-.45-.52-.38-.88.1-.56-.76-.8-.86-.24h0Z"/>
      <path d="m195.39,142.91c-.08.51-.21,1.02-.42,1.5-.1.22-.06.48.16.61.19.11.51.06.61-.16.23-.49.34-1,.31-1.54-.02-.39-.47-.58-.76-.32-.67.62-1.34,1.23-2,1.85l.76.32c-.02-.2.01-.35.15-.5.29-.3,0-.91-.43-.75-.76.29-1.47.66-2.13,1.13l.67.39c-.07-.56-.14-1.63-.82-1.79-.4-.1-.64.23-.86.5-.24.3-.48.6-.72.9-.15.19-.18.45,0,.63.16.16.48.19.63,0,.18-.22.35-.44.53-.65.12-.15.29-.47.47-.55l-.23.06c-.14,0-.15-.14-.08.06.03.09.06.19.08.29.05.19.09.37.11.56.04.3.36.61.67.39.6-.42,1.24-.78,1.92-1.04l-.43-.75c-.29.3-.45.7-.41,1.13.04.38.46.59.76.32.67-.62,1.34-1.23,2-1.85l-.76-.32c.02.38-.03.74-.19,1.09l.77.45c.24-.55.42-1.11.51-1.71.03-.24-.06-.48-.31-.55-.21-.06-.51.07-.55.31h0Z"/>
      <path d="m184.5,143.63c-.28.95-.67,1.86-1.16,2.73l.82.11c-.13-.35,0-.72-.09-1.08-.08-.32-.29-.63-.59-.76-.76-.34-1.36.66-1.78,1.13l.75.43c.33-1.04.71-2.06,1.15-3.06.19-.42-.34-.96-.7-.54-.48.56-.83,1.19-1.05,1.89-.13.41.46.79.75.43.41-.5.85-.96,1.35-1.38l-.75-.43c-.16.9-.62,1.66-1.33,2.23l.76.32c.02-.65.03-1.29.05-1.94,0-.22-.21-.47-.45-.45-.78.08-1.09.78-1.45,1.39-.42.74-.83,1.49-1.21,2.25l.83.23c.05-.65.09-1.3.14-1.95.02-.32-.4-.58-.67-.39-.99.72-1.67,1.72-2.32,2.74l.77.45c.52-1.14,1.09-2.25,1.73-3.32.23-.39-.23-.82-.61-.61-1.48.81-1.91,2.47-2.54,3.91-.23.52.54.98.77.45.55-1.27.91-2.87,2.22-3.59l-.61-.61c-.64,1.08-1.21,2.18-1.73,3.32-.23.52.46.95.77.45.56-.88,1.14-1.8,2-2.42l-.67-.39c-.05.65-.09,1.3-.14,1.95-.03.44.64.61.83.23.3-.59.6-1.17.93-1.74.15-.28.31-.55.47-.82.09-.15.28-.61.49-.63l-.45-.45c-.02.65-.03,1.29-.05,1.94-.01.42.48.54.76.32.82-.66,1.38-1.6,1.56-2.63.08-.45-.4-.73-.75-.43-.49.42-.94.87-1.35,1.38l.75.43c.17-.55.44-1.06.82-1.5l-.7-.54c-.47,1.07-.88,2.16-1.24,3.27-.13.42.45.76.75.43l.49-.53c.09-.1.19-.23.29-.32s.01-.09.06-.03c.11.13.05.39.04.54,0,.23.01.44.09.66.13.34.61.46.82.11.53-.93.95-1.92,1.25-2.94.16-.55-.7-.79-.86-.24h0Z"/>
      <path d="m176.99,148c-.36-.24-.76-.21-1.17-.14-.18.03-.4.12-.59.09-.19-.03-.21-.13-.32-.29-.28-.4-.72-.54-1.18-.35-.22.09-.41.24-.58.42-.19.2-.32.46-.61.52l.55.55c.17-.61.34-1.21.51-1.82.12-.42-.44-.76-.75-.43-.96,1.01-1.85,2.1-2.65,3.24-.25.35.26.88.61.61.5-.37.5-1.16-.1-1.44-.71-.33-1.33.27-1.59.88l.82.11-.07-.42c-.09-.54-.82-.33-.88.12-.19,1.41-.48,2.8-.87,4.16-.16.55.7.79.86.24.41-1.45.71-2.91.9-4.4l-.88.12.07.42c.06.36.67.45.82.11.11-.25.26-.5.47-.66l.61.61c.76-1.08,1.6-2.1,2.51-3.06l-.75-.43c-.17.61-.34,1.21-.51,1.82-.1.35.22.62.55.55.46-.09.7-.43,1-.75.05-.06.2-.23.29-.23s.09.04.14.12c.13.15.21.32.38.43.31.2.67.19,1.02.13.28-.05.65-.2.91-.03.48.32.92-.45.45-.77h0Z"/>
      <path d="m170.06,148.14c-.17.56-.43,1.09-.8,1.55l.75.43c.06-.45.17-.88.31-1.31.08-.25-.1-.46-.31-.55-.47-.19-.95.11-1.21.5s-.2.87-.43,1.26l.82.11c-.08-.4-.12-.81-.12-1.22s-.47-.56-.76-.32c-.53.44-.82,1.13-.78,1.82h.89c-.04-.38-.13-.93.26-1.16.53-.31,1.16-.5,1.72-.74s.89-.68,1.28-1.11c.44-.49.88-.98,1.32-1.47l-.76-.32c.09.68.17,1.36.26,2.04.03.24.18.45.45.45.22,0,.48-.21.45-.45-.09-.68-.17-1.36-.26-2.04-.04-.35-.47-.63-.76-.32-.47.52-.95,1.05-1.42,1.57-.19.22-.38.47-.61.65s-.54.28-.81.39c-.31.13-.62.26-.92.39-.28.12-.55.24-.75.48-.38.45-.38,1.06-.32,1.62.02.24.19.45.45.45.23,0,.46-.2.45-.45-.03-.47.16-.88.52-1.18l-.76-.32c0,.49.06.97.15,1.45.07.39.63.42.82.11s.22-.63.3-.96c.03-.14.13-.47.32-.39l-.31-.55c-.14.43-.24.87-.31,1.31-.03.2.02.4.21.5.16.09.42.08.54-.07.47-.58.81-1.22,1.03-1.94.16-.55-.7-.79-.86-.24h0Z"/>
      <path d="m173.25,146.93v1.84c.01.46.6.58.84.23s.52-.63.89-.85l-.61-.16c.12.26.16.49.16.78,0,.35.51.64.76.32.39-.51.79-1.02,1.18-1.53l-.75-.2c.07.31.14.63.22.94s.53.45.75.2c1-1.16,2-2.31,3-3.47l-.76-.32c.03.74.15,1.46.39,2.16.09.26.4.43.66.27,1.12-.74,2.15-1.59,3.08-2.57l-.7-.09c.29.58.91,2.05,1.72,2.06s1.49-1.35,1.76-1.94l-.83-.23c.06.55.24.98.58,1.42.23.28.65.09.75-.2.24-.67.47-1.34.71-2.01.16-.45-.44-.7-.75-.43l-1.39,1.22c-.43.38.2,1.01.63.63l1.39-1.22-.75-.43c-.24.67-.47,1.34-.71,2.01l.75-.2c-.19-.23-.29-.49-.32-.78-.04-.39-.63-.67-.83-.23-.13.29-.77,1.51-1,1.45-.05-.01-.39-.6-.46-.72-.17-.27-.32-.56-.47-.85-.13-.26-.51-.29-.7-.09-.88.92-1.84,1.73-2.9,2.43l.66.27c-.21-.63-.33-1.26-.36-1.92-.01-.36-.5-.62-.76-.32-1,1.16-2,2.31-3,3.47l.75.2c-.07-.31-.14-.63-.22-.94s-.54-.46-.75-.2c-.39.51-.79,1.02-1.18,1.53l.76.32c0-.45-.09-.82-.28-1.23-.1-.22-.42-.28-.61-.16-.5.31-.89.69-1.21,1.17l.83.23v-1.84c-.02-.57-.91-.58-.9,0h0Z"/>
      <path d="m209.12,141.29c-.53.94-.93,1.95-1.18,3l.66-.27c-1.13-.71-2.32-1.29-3.57-1.75-.23-.08-.49.1-.55.31l-.43,1.49.88.12c0-.41,0-.83-.01-1.24l-.76.32c.47.38.97.74,1.49,1.05.4.23,1.01.67,1.49.41.45-.24.44-.9.45-1.34.02-.66-.09-1.31-.29-1.94-.15-.49-.85-.39-.88.12-.04.76.53,1.24,1.2,1.45.88.28,1.82.44,2.72.66.45.11.72-.41.43-.75-.97-1.15-2.1-2.13-3.35-2.96-.42-.28-.93.37-.54.7.74.63,1.63.89,2.56,1.12.45.11.91.22,1.34.39s.86.63,1.36.58l-.43-.33c.24.59.58,1.1,1.08,1.51.24.2.52.15.7-.09.16-.21.32-.42.48-.64l-.61.16c.53.31,1.01.66,1.46,1.09.41.4,1.05-.23.63-.63-.49-.48-1.04-.89-1.64-1.23-.23-.13-.46-.03-.61.16-.16.21-.32.42-.48.64l.7-.09c-.37-.31-.66-.67-.85-1.11-.07-.17-.22-.35-.43-.33-.18.02-.45-.23-.6-.31-.17-.09-.35-.16-.52-.23-.39-.15-.79-.26-1.19-.36-.81-.2-1.67-.37-2.32-.93l-.54.7c1.19.78,2.25,1.73,3.17,2.82l.43-.75c-.62-.15-1.24-.3-1.86-.44-.44-.11-1.45-.19-1.41-.81l-.88.12c.13.4.22.8.25,1.21.02.32.09.92-.1,1.19l.27-.21c-.21.07-.81-.38-.99-.49-.37-.23-.73-.48-1.07-.76-.29-.23-.77-.1-.76.32s0,.83.01,1.24c0,.5.74.61.88.12l.43-1.49-.55.31c1.18.43,2.29.99,3.35,1.66.24.15.59,0,.66-.27.24-.98.6-1.91,1.09-2.79.28-.5-.49-.95-.77-.45h0Z"/>
      <path d="m204.08,144.12c-.14-.21-.37-.33-.62-.26-.19.05-.34.19-.44.35-.09.15-.11.32-.1.5,0,.05,0,.14,0,.19,0,.04,0,.02,0-.05,0,.01,0,.03,0,.04-.01.03,0,.02.02-.05.02-.04.05-.07.08-.09l.61.16c-.27-.55-.66-1.05-1.12-1.45-.23-.2-.53-.16-.7.09-.16.22-.19.51-.13.77l.55-.55s-.08-.01-.1-.03c.05.02.06.03.01,0l-.03-.02s-.06-.03-.09-.05c-.01,0-.11-.09-.07-.04s-.04-.04-.05-.04c-.02-.02-.05-.05-.07-.07-.01-.01-.02-.03-.03-.04.03.04.04.05.02.02-.02-.03-.04-.07-.06-.1-.12-.2-.41-.29-.61-.16s-.28.39-.16.61c.22.38.58.66,1,.79.34.1.62-.23.55-.55-.02-.08,0,.05,0,0,0-.02.01-.11,0,0,0-.06-.01,0-.01,0,0-.02.04-.08.05-.09l-.7.09c.21.18.41.39.58.61-.04-.05-.01-.01.01.02.02.03.04.05.06.08.04.06.09.13.13.19.07.12.14.24.2.37.11.21.42.28.61.16.27-.16.36-.45.34-.75,0-.05,0-.09-.01-.14,0,0,0-.05,0-.06v.07s0-.03-.01,0c-.01.03-.02.04,0,.02.01-.02,0-.02-.01.01-.06.04.02,0,.02-.01,0,0-.08.06-.03.03-.06.04-.13.05-.2.01-.11.01-.19-.03-.25-.13.13.19.4.3.61.16.19-.13.3-.4.16-.61h0Z"/>
      <path d="m194.52,144.77c-.31.66-.4,1.39-.23,2.1.08.35.5.4.75.2.21-.17.41-.33.62-.5l-.7-.09c.13.25.26.51.39.76.12.24.23.54.47.68s.5.11.72-.03c.08-.05.16-.12.23-.18.04-.03.04-.03,0,0l.03-.02s.04-.03-.02,0c.05-.01.04-.01-.02,0l-.45-.45c-.02.46.09.92.33,1.33.11.18.31.24.5.21.29-.06.47-.27.58-.53.09-.22-.1-.49-.31-.55-.26-.07-.46.09-.55.31,0-.04.03-.08.07-.09.04-.01.03-.01-.02,0l.5.21c-.16-.28-.22-.56-.21-.88.01-.24-.21-.45-.45-.45s-.4.1-.56.23c-.03.02-.06.05-.08.07,0,0-.09.07-.04.03s-.03.02-.04.02c.04-.03.08-.03.12-.02.07-.01.12,0,.17.06l.02.02s-.02-.04-.03-.06c-.02-.05-.05-.09-.07-.14-.06-.12-.12-.23-.18-.35-.11-.21-.22-.43-.33-.64-.14-.28-.49-.26-.7-.09s-.41.33-.62.5l.75.2c-.11-.47-.07-.97.14-1.41.1-.22.06-.48-.16-.61-.19-.11-.51-.06-.61.16h0Z"/>
      <path d="m194.15,170.44c-.43,1.35-.75,2.71-.95,4.12-.08.56.66.79.86.24.28-.75.55-1.49.83-2.24h-.86l.21,1.54c.07.51.88.37.88-.12v-2.63c0-.57-.9-.58-.9,0,0,.86.16,1.57.52,2.35.16.35.74.25.82-.11.17-.86.24-1.68.19-2.55h-.89c.09.81.35,1.41.88,2.03.24.28.63.08.75-.2.23-.55.46-1.11.68-1.66l-.88-.12c-.07.9.11,1.68.55,2.47.2.36.69.23.82-.11.33-.91.48-1.78.49-2.74h-.89c.03.6.17,1.09.46,1.61.18.32.74.28.82-.11.15-.81.21-1.6.16-2.43h-.89c.13,1.11.45,2.11,1.02,3.08.18.3.59.27.77,0,.29-.43.38-.76.36-1.27l-.83.23c.26.35.51.7.77,1.05.2.27.58.3.77,0,.29-.44.58-.88.87-1.32.12-.18.05-.39-.07-.54-.6-.77-1.48-1.02-2.41-.72-.34.11-.46.63-.11.82.73.38,1.18-.5,1.79-.2.24.12.34.37.62.48.93.35,1.72.16,1.94,1.48.07.43.78.42.86,0,.19-.94.38-1.88.57-2.82l-.88-.12c0,.96.2,1.8.64,2.66.19.37.69.22.82-.11.23-.6.57-1.03,1.06-1.43l-.75-.2c.14,1.04.48,1.94,1.03,2.82.24.39.8.21.83-.23.08-1.15.16-2.3.24-3.45.03-.39-.51-.59-.76-.32l-.59.62c-.4.42.22,1.04.63.63.19-.19,1.12-1.33,1.41-1.22l-.33-.43v.14c.28-.04.58-.08.87-.12-.44-1.2-1.58-.21-2.37.11-1.72.68-3.57.99-5.4,1.13-1.69.13-3.38.11-5.07.14-1.3.02-2.49.17-3.53,1.01h.63c-.99-1.21-1.75-.55-3.05-.3-1.08.21-2.12.61-2.41,1.77l.75-.2c-.64-.8-1.76-1.38-2.44-.28l.82.11c-.12-.81-.88-1.26-1.67-1.19-1.09.11-1.62,1.15-2,2.05-.22.51.47.96.77.45.52-.88,1.16-1.61,1.97-2.24.45-.34,0-1.12-.45-.77-.94.72-1.69,1.54-2.29,2.56l.77.45c.12-.28.21-.58.39-.83.23-.33,1.46-1.51,1.65-.25.06.4.63.4.82.11.48-.07.83.08,1.03.46.21.26.67.11.75-.2.24-.98,1.34-1.04,2.15-1.21.7-.15,1.24-.57,1.81.13.16.2.46.14.63,0,1.14-.92,2.76-.74,4.13-.75s2.7-.03,4.04-.15c.73-.06,7-1.04,6.7-1.88.17.47.84.4.88-.12v-.14c.02-.21-.14-.36-.32-.43-.93-.35-1.73.91-2.28,1.45l.63.63.59-.62-.76-.32c-.08,1.15-.16,2.3-.24,3.45l.83-.23c-.51-.82-.8-1.66-.94-2.61-.05-.37-.52-.38-.75-.2-.62.5-1.01,1.08-1.29,1.83l.82-.11c-.37-.72-.52-1.39-.52-2.21,0-.49-.78-.62-.88-.12-.19.94-.38,1.88-.57,2.82h.86c-.11-.65-.39-1.19-.92-1.59-.48-.36-1.05-.37-1.56-.64-.41-.22-.62-.61-1.13-.61-.29,0-1.02.62-1.14.55l-.11.82c.57-.19,1.17.01,1.54.49l-.07-.54c-.29.44-.58.88-.87,1.32h.77c-.26-.35-.51-.7-.77-1.05-.24-.33-.86-.26-.83.23l-.23.82h.77c-.49-.84-.79-1.66-.9-2.63-.07-.56-.93-.58-.89,0,.05.75.02,1.44-.12,2.19l.82-.11c-.24-.35-.35-.74-.34-1.16-.03-.57-.89-.58-.89,0,0,.89-.16,1.68-.46,2.5l.82-.11c-.37-.67-.48-1.26-.43-2.02.04-.55-.7-.54-.88-.12-.23.55-.46,1.11-.68,1.66l.75-.2c-.37-.39-.58-.86-.62-1.4-.07-.56-.93-.58-.89,0,.05.79,0,1.54-.15,2.32l.82-.11c-.28-.63-.39-1.22-.39-1.9h-.89v2.63c.3-.04.59-.08.88-.12l-.21-1.54c-.07-.48-.73-.36-.86,0l-.83,2.24.86.24c.2-1.4.51-2.77.95-4.12.18-.55-.69-.78-.86-.24h0Z"/>
      <path d="m210.13,169.14c.69.78,1.38,1.56,2.07,2.34.15.18.48.17.63,0,.17-.19.17-.44,0-.63-.69-.78-1.38-1.56-2.07-2.34-.15-.18-.48-.17-.63,0-.17.19-.17.44,0,.63h0Z"/>
      <path d="m195.57,173.59v1.78c0,.19.3.19.3,0v-1.78c0-.19-.3-.19-.3,0h0Z"/>
      <path d="m196.41,174.64v.31s.02.08.04.11.07.05.11.04c.08,0,.15-.07.15-.15v-.31s-.02-.08-.04-.11-.07-.05-.11-.04c-.08,0-.15.07-.15.15h0Z"/>
      <path d="m196.94,173.91v.31s.02.08.04.11.07.05.11.04c.08,0,.15-.07.15-.15v-.31s-.02-.08-.04-.11-.07-.05-.11-.04c-.08,0-.15.07-.15.15h0Z"/>
      <path d="m197.55,173.33c.21.52.47,1.02.79,1.48.05.07.13.1.2.05.07-.04.1-.14.05-.2-.3-.44-.56-.91-.76-1.41-.03-.07-.1-.13-.18-.1-.07.02-.13.11-.1.18h0Z"/>
      <path d="m198.39,173.39c.03.61.18,1.2.45,1.75.08.17.34.02.26-.15-.25-.5-.39-1.05-.41-1.6,0-.19-.31-.19-.3,0h0Z"/>
      <path d="m208.62,170.87c0,.79.08,1.58.22,2.35.03.19.32.11.29-.08-.14-.75-.21-1.51-.21-2.27,0-.19-.3-.19-.3,0h0Z"/>
      <path d="m208.26,169.82c-.04.5,0,1.01.11,1.51.04.19.33.11.29-.08-.11-.47-.14-.95-.1-1.43,0-.08-.07-.15-.15-.15-.09,0-.14.07-.15.15h0Z"/>
      <path d="m127.49,103.01c-1.83-1.43-3.62-3.06-5.59-4.3-1.34-.84-3.22-1.34-4.57-.23s-1.61,3.71-1.82,5.35c-.29,2.23-.24,4.5.14,6.71.4,2.33,1.39,4.31,2.14,6.51.4,1.17.22,2.33.19,3.53-.03,1.14.19,2.21.57,3.28,1.71,4.79,4.02,9.45,6.05,14.11.89,2.05,1.54,4.57,3.78,5.51,2.41,1,5.25,1.3,7.79,1.87.47.11.67-.61.2-.72-2.05-.46-4.11-.91-6.16-1.39-.93-.22-1.93-.45-2.64-1.12-.82-.76-1.2-1.95-1.63-2.95-1.77-4.05-3.53-8.11-5.28-12.18-.85-1.98-1.92-4-1.94-6.2,0-.9.16-1.79.07-2.7-.08-.81-.37-1.53-.69-2.26-1.75-3.96-2.44-8.21-1.76-12.51.17-1.06.39-2.16.77-3.16.67-1.74,2.41-1.87,3.91-1.12,2.15,1.07,4.07,3.01,5.96,4.48.37.29.9-.23.53-.53h0Z"/>
      <path d="m125.45,101.45c1.29.69,2.37,1.71,3.13,2.96.22.36.79.13.68-.29-.45-1.71-1.76-3.12-3.41-3.73-.19-.07-.41.08-.46.26-.06.21.07.39.26.46,1.41.52,2.51,1.76,2.89,3.21l.68-.29c-.82-1.35-2-2.47-3.4-3.22-.42-.23-.8.42-.38.64h0Z"/>
      <path d="m117.55,102.12c1.35.11,2.81.24,3.96,1.02.66.45,1.1,1.13,1.54,1.78.48.7.95,1.41,1.43,2.11,1.6,2.36,3.08,5.06,5.46,6.74.39.28.76-.37.38-.64-1.29-.91-2.25-2.17-3.14-3.46-.97-1.4-1.91-2.82-2.86-4.22-.8-1.18-1.53-2.51-2.83-3.2-1.2-.63-2.59-.77-3.93-.88-.48-.04-.47.7,0,.74h0Z"/>
      <path d="m117.46,101.85c-.27-.23-.63-.25-.94-.08-.29.16-.44.47-.54.77-.22.64-.41,1.28-.61,1.92-.06.19.07.41.26.46.2.05.39-.06.46-.26.17-.53.33-1.05.5-1.58.04-.11.07-.23.11-.34.01-.03.02-.06.03-.09.02-.06-.02.04,0-.02.02-.05.05-.09.07-.14.03-.05-.05.04.02-.03.02-.02.03-.03.05-.05-.06.04.09-.02.01,0,.02,0,.04-.01.06-.02-.07.01.03,0-.02,0-.03,0,.01.02,0,0-.03-.04.05.04-.01-.01.15.13.38.15.53,0,.13-.13.15-.4,0-.53h0Z"/>
      <path d="m133.31,126.13c-.05,1.65-.1,3.31.15,4.95.24,1.55.83,2.99,1.29,4.48s.52,3.09.85,4.64,1.78,3.21,1.22,4.81l.36-.27c-.18-.02-.36-.03-.54-.05-.48-.04-.47.7,0,.74.18.02.36.03.54.05.17.01.31-.13.36-.27.47-1.34-.22-2.53-.74-3.74-.71-1.64-.64-3.43-1.06-5.15-.39-1.61-1.09-3.13-1.43-4.76-.38-1.78-.31-3.62-.25-5.43.02-.48-.73-.48-.74,0h0Z"/>
      <path d="m257.6,97.49c-1.42,1.28-2.29,3.09-2.45,4.99-.04.48.71.47.74,0,.14-1.71.96-3.32,2.23-4.46.36-.32-.17-.85-.53-.53h0Z"/>
      <path d="m255.1,101.07c-.06,1.04.41,1.98.53,3,.14,1.17.09,2.39.12,3.57.05,2.4.09,4.81.14,7.21,0,.48.75.48.74,0-.05-2.4-.09-4.81-.14-7.21-.02-1.14,0-2.3-.1-3.44-.1-1.05-.61-2.07-.55-3.12.03-.48-.72-.48-.74,0h0Z"/>
      <path d="m255.48,100.81c.59,1.62.69,3.38.27,5.05-.12.46.6.66.72.2.45-1.8.36-3.7-.27-5.45-.16-.45-.88-.25-.72.2h0Z"/>
      <path d="m256.13,101.08c.01,1.5-.21,2.97-.64,4.4-.14.46.58.66.72.2.45-1.49.68-3.04.67-4.6,0-.48-.75-.48-.74,0h0Z"/>
      <path d="m256.57,101.83c1.15-1.71,2.31-3.45,3.87-4.82.77-.68,1.63-1.24,2.57-1.63.72-.3,2.81-1.09,3.41-.26.2.27.17,1.09.22,1.43.1.68.19,1.36.28,2.05.15,1.19.26,2.39.33,3.59.12,2.28.05,4.56-.32,6.82-1.44,8.63-5.32,16.66-6.87,25.28-.18,1.02-.24,2.12-.61,3.1-.43,1.15-1.42,2.1-2.3,2.93-1.7,1.61-3.67,2.87-5.81,3.81-.44.19-.06.83.38.64,1.94-.85,3.74-1.97,5.34-3.36,1.44-1.25,2.88-2.67,3.32-4.58.51-2.2.78-4.45,1.33-6.64.61-2.41,1.33-4.78,2.07-7.15,1.45-4.62,3.14-9.26,3.9-14.05.77-4.85.14-9.71-.62-14.51-.02-.11-.15-.24-.26-.26-5.07-.76-8.37,3.54-10.87,7.27-.27.4.38.77.64.38h0Z"/>
      <path d="m266.32,101.46c.32-.95.57-1.91.74-2.89.04-.24-.17-.58-.46-.46-2.47,1.01-4.1,3.14-5.61,5.25-1.82,2.55-3.48,5.22-4.99,7.97-.23.42.41.8.64.38,1.39-2.54,2.91-5,4.56-7.37,1.48-2.12,3.1-4.49,5.59-5.51l-.46-.46c-.17.98-.42,1.95-.74,2.89-.16.45.56.65.72.2h0Z"/>
      <path d="m255.46,112.62c.09,10.68-1.25,21.31-4,31.62-.12.46.59.66.72.2,2.77-10.38,4.12-21.08,4.03-31.82,0-.48-.75-.48-.74,0h0Z"/>
      <path d="m144.91,176.31c.49,9.21,2.87,18.4,9.51,25.13,3.58,3.63,7.67,6.72,11.76,9.76,4.42,3.29,8.84,6.59,13.15,10.02,4.87,3.88,9.65,7.87,14.33,11.98.36.31.89-.21.53-.53-7.82-6.86-15.92-13.41-24.27-19.62s-17.06-11.75-21.06-21.23c-2.07-4.9-2.92-10.23-3.2-15.52-.03-.48-.77-.48-.74,0h0Z"/>
      <path d="m194.28,233.31c8.04-6.8,15.9-13.81,23.57-21.03,3.84-3.62,7.64-7.28,11.37-11.01,3.17-3.18,6.29-6.51,8.53-10.44,1.31-2.3,2.15-4.76,2.96-7.27.92-2.88,1.85-5.75,2.77-8.63.15-.46-.57-.65-.72-.2-.78,2.42-1.56,4.84-2.33,7.27s-1.53,5.02-2.73,7.35c-2.12,4.16-5.3,7.65-8.56,10.94-7.17,7.24-14.63,14.21-22.21,21.02-4.33,3.89-8.73,7.71-13.17,11.47-.37.31.16.83.53.53h0Z"/>
      <path d="m242.43,173.88l.15,1.01c.01.09.1.18.17.22.08.05.2.07.29.04s.18-.08.22-.17l.04-.09c.02-.07.02-.13,0-.2l-.15-1.01c-.01-.09-.1-.18-.17-.22-.08-.05-.2-.07-.29-.04s-.18.08-.22.17l-.04.09c-.02.07-.02.13,0,.2h0Z"/>
      <path d="m242.45,173.74c1.34,4.03,1.23,8.31,1.24,12.51s-.08,8.76-.77,13.09c-.67,4.21-1.7,8.38-2.7,12.52s-2.1,8.34-3.36,12.45c-1.41,4.57-3.02,9.08-4.81,13.51-.18.44.54.64.72.2,3.29-8.13,5.87-16.5,7.95-25.01,1.05-4.3,2.12-8.63,2.85-13s.86-8.35.87-12.56c.02-4.64.22-9.45-1.26-13.91-.15-.45-.87-.26-.72.2h0Z"/>
      <path d="m231.49,237.69c-6.67,18.32-11.42,37.25-15.69,56.25-1.23,5.46-2.42,10.92-3.61,16.38-.1.47.62.67.72.2,4.15-19.03,8.3-38.1,14-56.74,1.63-5.34,3.39-10.64,5.31-15.89.16-.45-.55-.64-.72-.2h0Z"/>
      <path d="m167.56,274.56c.23-2.28.95-4.46,2.18-6.4,1.14-1.78,2.72-3.16,4.17-4.67s2.57-3.04,3.5-4.8c1.04-1.98,1.75-4.1,2.66-6.14,1.83-4.09,4.16-7.94,6.6-11.69,1.12-1.72,2.18-3.83,3.68-5.24.9-.84,1.78-.64,2.83-.94.57-.17.93-.52,1.06-1.09.11-.47-.61-.66-.72-.2-.19.84-2.1.64-2.82,1.04-.63.35-1.13.89-1.58,1.46-1.28,1.63-2.36,3.45-3.48,5.19-2.51,3.89-4.88,7.89-6.68,12.16-.88,2.08-1.63,4.22-2.81,6.16s-2.7,3.49-4.29,5.08c-2.81,2.81-4.65,6.07-5.05,10.07-.05.48.7.47.74,0h0Z"/>
      <path d="m167.9,274.46c-3.87-10.36-8.28-20.48-13.09-30.43-1.25-2.58-2.41-5.18-3.27-7.92s-1.46-5.27-2.1-7.93c-1.33-5.52-2.48-11.09-3.31-16.71-.93-6.34-1.45-12.74-1.59-19.15-.01-.48-.75-.48-.74,0,.24,11.2,1.75,22.29,4.25,33.21,1.22,5.32,2.43,10.7,4.64,15.71s4.8,10.06,7.06,15.16c2.66,6.01,5.13,12.1,7.43,18.26.17.44.89.25.72-.2h0Z"/>
      <path d="m144.56,193.06c-.62-5.55-.4-11.16.67-16.65.09-.47-.63-.67-.72-.2-1.08,5.55-1.32,11.22-.7,16.84.05.47.8.48.74,0h0Z"/>
      <path d="m193.81,234.69c3.24,2.14,5.36,5.41,7.31,8.68,2.12,3.55,4.23,7.11,6.32,10.68s4.16,7.27,6.05,11.01,3.51,7.21,5.93,10.43c.28.38.93,0,.64-.38-2.51-3.34-4.25-7.12-6.13-10.83s-4.12-7.67-6.33-11.43-4.26-7.3-6.46-10.9c-1.86-3.03-3.95-5.93-6.95-7.91-.4-.26-.77.38-.38.64h0Z"/>
      <path d="m219.53,275.43l.62.49s.07.06.12.08c.04.02.09.03.14.03.09,0,.2-.04.26-.11s.11-.16.11-.26c0-.09-.03-.2-.11-.26l-.62-.49s-.07-.06-.12-.08c-.04-.02-.09-.03-.14-.03-.09,0-.2.04-.26.11s-.11.16-.11.26c0,.09.03.2.11.26h0Z"/>
      <path d="m179.56,253.72c1.46,2.05,2.79,4.2,3.93,6.45.63,1.23,1.2,2.48,1.72,3.75.27.66.44,1.41,1.15,1.71.93.38,2.4,0,3.36-.05,1.39-.09,2.79-.17,4.18-.26,2.87-.18,5.74-.35,8.61-.53.15,0,.34-.11.36-.27.26-1.81.87-3.54,1.92-5.05s2.48-2.57,3.42-4.11c.25-.41-.39-.78-.64-.38-1.01,1.64-2.6,2.81-3.64,4.44-.95,1.48-1.53,3.15-1.78,4.89l.36-.27c-2.62.16-5.25.32-7.87.48-1.15.07-2.3.14-3.44.21-.66.04-1.31.08-1.97.12-.59.04-1.38.22-1.97.12-1.25-.22-1.51-1.73-1.98-2.78-.42-.95-.87-1.88-1.35-2.8-1.1-2.1-2.35-4.12-3.73-6.05-.28-.39-.92-.02-.64.38h0Z"/>
      <path d="m185.63,265.95c-2.89,6.75-4.72,13.92-5.31,21.24-.65,7.92-.28,15.98,0,23.91.02.48.76.48.74,0-.26-7.63-.58-15.36-.06-22.99s2.32-14.88,5.28-21.79c.19-.44-.45-.81-.64-.38h0Z"/>
      <path d="m180.36,311.16c-.13,1.47-.06,2.94.18,4.39.03.2.28.31.46.26.21-.06.29-.26.26-.46-.23-1.38-.28-2.79-.15-4.19.04-.48-.7-.47-.74,0h0Z"/>
      <path d="m212.57,311c-.49-8.28-1.18-16.58-2.28-24.8-1.04-7.72-2.64-15.76-7.42-22.11-.28-.38-.93,0-.64.38,4.82,6.4,6.38,14.52,7.39,22.3s1.73,16.14,2.2,24.24c.03.48.77.48.74,0h0Z"/>
      <path d="m143.09,176.91c-2.75,2.7-5.14,5.73-7.09,9.05-2.15,3.66-3.82,7.61-5.64,11.44-.2.43.44.81.64.38,1.77-3.73,3.4-7.56,5.46-11.14,1.95-3.39,4.37-6.47,7.15-9.21.34-.34-.18-.86-.53-.53h0Z"/>
      <path d="m129.41,196.87c-6.92.81-13.44,3.31-19.94,5.7-6.93,2.54-13.86,5.09-20.79,7.63-13.94,5.12-27.88,10.24-41.81,15.36-3.32,1.22-6.66,2.41-9.97,3.67-2.84,1.08-5.66,2.3-8.09,4.16-2.14,1.63-4.23,4.29-7.08,4.56-1.36.13-2.64-.67-3.99-.49s-2.03,1.43-2.65,2.57c-3.07,5.64-4.48,11.97-5.62,18.23-1.31,7.21-2.47,14.46-3.55,21.71-2.41,16.17-4.32,32.41-5.74,48.69-.04.48.7.47.74,0,1.25-14.41,2.89-28.79,4.93-43.11,1.01-7.1,2.11-14.18,3.31-21.25,1.1-6.45,2.09-13.02,4.41-19.17.56-1.48,1.2-2.94,1.94-4.34.42-.8.83-1.81,1.63-2.29,1.04-.63,2.12-.07,3.22.11,2.31.39,4.26-.82,5.99-2.22,2.45-1.99,4.73-3.85,7.63-5.18,3.18-1.45,6.53-2.55,9.8-3.75,13.39-4.92,26.79-9.84,40.18-14.75,7.63-2.8,15.26-5.6,22.89-8.41s14.72-5.79,22.54-6.7c.47-.05.48-.8,0-.74h0Z"/>
      <path d="m167.17,274.69c1.8,7.16,3.28,14.49,6.32,21.25,1.52,3.39,3.1,6.71,3.86,10.37s1.38,6.95,2.86,10.28c.19.44.84.06.64-.38-1.55-3.49-2.1-7.1-2.94-10.79-.75-3.31-2.21-6.37-3.6-9.45-3.1-6.84-4.6-14.23-6.43-21.48-.12-.46-.83-.27-.72.2h0Z"/>
      <path d="m180.43,316.81c2.06,3.29,3.47,6.95,4.16,10.77.08.47.8.27.72-.2-.7-3.88-2.14-7.61-4.23-10.95-.25-.4-.9-.03-.64.38h0Z"/>
      <path d="m212.27,310.57c-.58,5.82-1.88,11.52-3.19,17.21-.11.47.61.67.72.2,1.32-5.75,2.63-11.52,3.22-17.41.05-.48-.7-.47-.74,0h0Z"/>
      <path d="m180.62,316.16c.48,0,.48-.74,0-.74s-.48.74,0,.74h0Z"/>
      <path d="m243.23,175.01c2.91,3.36,5.86,6.68,8.86,9.95,1.48,1.62,2.97,3.22,4.47,4.82,1.29,1.36,2.57,2.78,4.32,3.54.43.19.81-.45.38-.64-1.8-.78-3.09-2.28-4.41-3.68-1.5-1.6-2.99-3.2-4.47-4.82-2.92-3.19-5.79-6.42-8.62-9.69-.31-.36-.84.17-.53.53h0Z"/>
      <path d="m261.06,193.82c6.18.08,11.96,2.7,17.68,4.76s11.78,4.13,17.73,6.04c11.76,3.78,23.67,6.89,35.59,10.14,6.01,1.64,11.87,3.64,17.56,6.19s10.81,5.19,16.07,8.03c1.23.66,2.45,1.38,3.44,2.39.8.82,1.45,1.85,2.49,2.41.48.26.98.34,1.5.48,1.04.28,1.56.73,1.94,1.77.55,1.49.99,3.04,1.48,4.55,1.88,5.9,3.64,11.86,4.67,17.98,2.17,12.85,1.19,26.24,5.63,38.67.16.45.88.25.72-.2-4.08-11.41-3.58-23.66-5.16-35.52-.82-6.17-2.37-12.19-4.2-18.14-.45-1.46-.91-2.92-1.38-4.38-.43-1.34-.72-2.95-1.45-4.16-.48-.79-1.18-1.08-2.05-1.3-1.66-.42-2.41-1.37-3.53-2.56-1.89-2.01-4.6-3.12-7.01-4.37-2.81-1.46-5.63-2.91-8.48-4.29-5.44-2.63-11.02-4.98-16.8-6.76s-11.98-3.25-17.97-4.87-12.33-3.47-18.45-5.38c-6.81-2.12-13.58-4.38-20.31-6.78-6.36-2.27-12.84-5.36-19.71-5.45-.48,0-.48.74,0,.74h0Z"/>
      <path d="m386.25,297.07c1.16,2.61.72,5.48.85,8.25.12,2.57.69,5.1,1.38,7.58,1.45,5.17,3.46,10.3,3.1,15.77-.03.48.71.48.74,0,.37-5.53-1.66-10.73-3.13-15.97-.77-2.76-1.36-5.55-1.39-8.43-.03-2.59.15-5.15-.93-7.58-.19-.44-.84-.06-.64.38h0Z"/>
      <path d="m145,82.56c1.36-2.71,4.14-4.46,6.69-5.93,1.67-.95,3.4-1.15,5.28-1.32,1.73-.16,3.47-.28,5.21-.29,3.57-.01,7.05.66,10.52,1.44,1.65.37,3.31.71,4.84,1.47s2.96,1.72,4.42,2.61v-.64c-1.4.99-2.91,2.08-4.64,2.37-1.86.31-3.35-.66-4.99-1.35-.61-.26-1.24-.49-1.9-.56-.4-.04-.79.04-1.18.01-1.26-.09-.58-.3-1.36-.43s-1.38.17-2.11.12c-.87-.06-1.73-.6-2.55-.86-1.6-.51-3.29-.78-4.97-.77-.72,0-1.46.05-2.15.24-.79.22-1.45.71-2.26.84-1.45.23-2.77.57-4.13,1.13-1.67.69-3.31,1.45-5.13,1.65-.47.05-.48.79,0,.74,1.69-.18,3.21-.79,4.76-1.43s3.12-1.06,4.83-1.39c.55-.1.95-.35,1.45-.58,1.04-.46,2.18-.49,3.31-.44,2.02.09,3.83.64,5.7,1.33.56.21,1.05.31,1.65.25.81-.08,1.23-.11,2,.15.18.06.35.14.54.17.97.17,1.81-.03,2.78.33.79.29,1.52.71,2.3,1.04,3.18,1.36,5.82-.05,8.44-1.91.23-.16.25-.49,0-.64-1.64-1-3.26-2.12-5.01-2.9-1.55-.69-3.23-1-4.88-1.37-3.7-.83-7.4-1.45-11.21-1.35-3.44.09-7.26.1-10.28,1.92-2.54,1.53-5.23,3.25-6.59,5.98-.21.43.43.8.64.38h0Z"/>
      <path d="m214,82.13c4.93-1.54,10-2.56,15.14-2.99,4.71-.4,10.21-.86,14.52,1.45.37.2.75-.27.45-.58-4.22-4.42-10.47-5.63-16.36-5.13-2.86.24-5.9.63-8.67,1.42s-4.48,2.58-6.03,4.99c-.26.4.38.78.64.38.8-1.24,1.63-2.53,2.85-3.4,1.04-.74,2.26-1.15,3.49-1.43,2.65-.62,5.46-1.05,8.17-1.23,5.56-.39,11.39.78,15.37,4.95l.45-.58c-4.32-2.32-9.69-1.96-14.42-1.59-5.37.41-10.67,1.45-15.81,3.05-.46.14-.26.86.2.72h0Z"/>
      <path d="m151.16,93.83c2.51-4.56,7.78-6,12.61-6.48,4.38-.44,9.75-1.23,13.56,1.49.39.28.76-.37.38-.64-4.13-2.94-10.14-2.06-14.85-1.49s-9.87,2.26-12.34,6.75c-.23.42.41.8.64.38h0Z"/>
      <path d="m151.62,97.81c2.26-1.85,4.46-3.95,7.01-5.39s5.21-1.92,7.97-1.94c5.14-.04,12.26,1.33,14.4,6.7l.46-.46c-1.18-.22-2.33-.68-3.54-.75-1.13-.07-2.2.28-3.23.71-2.68,1.12-5.23,2.18-8.12,2.62s-5.96.59-8.66-.24c-2.18-.67-4.05-2.6-6.47-1.98-.46.12-.27.84.2.72,1.52-.39,2.83.47,4.13,1.14.94.49,1.89.87,2.94,1.07,2.4.45,4.93.41,7.35.1s4.76-.94,6.98-1.89c1.27-.54,2.5-1.24,3.88-1.45,1.5-.23,2.89.4,4.34.67.25.05.57-.17.46-.46-2.19-5.49-8.95-7.07-14.28-7.23-2.81-.09-5.68.34-8.25,1.55-3.02,1.42-5.54,3.9-8.1,6-.37.3.16.83.53.53h0Z"/>
      <path d="m176.73,88.53c2.09,1.66,4.19,3.32,6.28,4.98.37.29.9-.23.53-.53-2.09-1.66-4.19-3.32-6.28-4.98-.37-.29-.9.23-.53.53h0Z"/>
      <path d="m210.74,95.43c1.54-2.42,3.96-3.99,6.61-4.98s5.7-1.84,8.55-1.35c5.3.9,9.35,4.95,14.23,6.9.44.18.64-.54.2-.72-5.39-2.15-9.92-6.96-16.02-7.08-2.71-.05-5.63.84-8.1,1.9s-4.65,2.65-6.12,4.94c-.26.4.39.78.64.38h0Z"/>
      <path d="m235.72,93.36c-.86,1.08-1.71,1.85-3.05,2.29-1.26.41-2.61.61-3.93.71-2.33.18-4.67.02-6.99-.17-2.45-.2-4.72-.64-7.07-1.35-1.49-.46-3.47-1.13-4.79.03-.36.32.17.84.53.53,1.06-.94,2.9-.2,4.07.16s2.3.71,3.5.93c2.16.39,4.37.54,6.56.64s4.43.08,6.6-.34,3.7-1.15,5.1-2.91c.3-.37-.23-.9-.53-.53h0Z"/>
      <path d="m206.1,93.87c1.92-2.19,3.98-4.46,6.76-5.54,3.03-1.17,6.64-1.34,9.86-1.49,5.85-.27,12.2.87,16.02,5.74.3.38.82-.15.53-.53-3.92-5-10.52-6.23-16.54-5.95-3.34.15-7.15.33-10.27,1.6-2.82,1.15-4.92,3.4-6.88,5.64-.31.36.21.89.53.53h0Z"/>
      <path d="m219.45,89.11c-1.09,2.21-.07,5.5,2.17,6.62,1.13.57,2.62.65,3.87.54s2.02-1.07,2.7-2.05c.89-1.27,1.76-2.81,1.14-4.39-.17-.43-.86-.27-.72.2.4,1.35.18,2.84-.68,3.98s-2.18,1.8-3.54,1.75c-.79-.03-1.46-.37-2.1-.81s-1.29-.85-1.65-1.51c-.61-1.15-1.24-2.93-.3-4.07.3-.37-.22-.9-.53-.53-.85,1.03-.8,2.37-.39,3.58.21.63.45,1.33.88,1.85s1.05.94,1.61,1.32c1.2.82,2.52,1.13,3.93.71,1.18-.35,2.22-1.13,2.89-2.16.82-1.27,1.01-2.87.59-4.31l-.72.2c.59,1.49-.4,2.89-1.24,4.06-.36.51-.78,1.08-1.39,1.32s-1.47.13-2.13.09-1.39-.15-1.99-.49-1.08-.92-1.43-1.53c-.7-1.2-.98-2.72-.34-4.01.21-.43-.43-.81-.64-.38h0Z"/>
      <path d="m182.54,99.48c.22,2.67-1.31,4.88-3.13,6.67-1.66,1.62-3.46,3.13-5.24,4.62-3.62,3.03-7.5,5.82-11.98,7.41-.45.16-.26.88.2.72,4.72-1.67,8.78-4.62,12.58-7.83,2-1.68,4.13-3.36,5.86-5.32,1.54-1.74,2.65-3.88,2.46-6.26-.04-.47-.78-.48-.74,0h0Z"/>
      <path d="m160.72,91.51c-.22.87-.37,1.76-.44,2.65-.06.73-.1,1.52.19,2.2s.99,1.12,1.59,1.53c.65.45,1.37.84,2.15.98,3.16.58,5.69-2.1,6.44-4.93.19-.73.28-1.56.02-2.29-.11-.32-.29-.61-.53-.84-.26-.26-.69-.45-.82-.82-.15-.45-.87-.26-.72.2.23.69.95.89,1.27,1.5.37.71.2,1.61-.03,2.33-.49,1.57-1.49,3.06-3.02,3.77-.79.37-1.71.51-2.57.33s-1.55-.68-2.23-1.17c-.39-.28-.77-.55-.93-1.02-.13-.39-.13-.82-.11-1.23.04-1.02.2-2.02.44-3.01.12-.46-.6-.66-.72-.2h0Z"/>
      <path d="m161.34,91.84c.48,0,.48-.74,0-.74s-.48.74,0,.74h0Z"/>
      <path d="m160.99,91.47c-.03,1.03-.61,1.96-.56,3.01.04.95.48,1.87,1.21,2.48.36.31.89-.22.53-.53-.65-.54-1.03-1.34-1-2.19.04-.95.54-1.81.57-2.77.01-.48-.73-.48-.74,0h0Z"/>
      <path d="m209.89,80.66c-.09-.84.04-1.69.39-2.45.08-.17-.18-.32-.26-.15-.38.81-.53,1.71-.43,2.6.02.19.32.19.3,0h0Z"/>
      <path d="m210.68,81.54c.19,0,.19-.3,0-.3s-.19.3,0,.3h0Z"/>
      <path d="m210.74,81.39c.15-1.45.87-2.8,1.97-3.74.15-.12-.07-.33-.21-.21-1.16,1-1.9,2.43-2.06,3.95-.02.19.28.19.3,0h0Z"/>
      <path d="m211.84,80.37c.39-1.66,1.33-3.14,2.65-4.21.15-.12-.06-.33-.21-.21-1.36,1.1-2.32,2.65-2.73,4.35-.04.19.24.27.29.08h0Z"/>
      <path d="m213.94,78.87c.77-.8,1.48-1.66,2.13-2.56.11-.16-.15-.3-.26-.15-.64.88-1.33,1.71-2.08,2.5-.13.14.08.35.21.21h0Z"/>
      <path d="m215.94,77.81c.94-1.21,2.03-2.3,3.25-3.22.15-.11,0-.37-.15-.26-1.24.94-2.36,2.03-3.31,3.27-.12.15.09.36.21.21h0Z"/>
      <path d="m218.12,76.57c.7-.3,1.43-.54,2.18-.71.19-.04.11-.33-.08-.29-.77.18-1.52.43-2.25.74-.07.03-.09.14-.05.2.04.08.13.08.2.05h0Z"/>
      <path d="m219.56,75.55l1.47-.32c.19-.04.11-.33-.08-.29l-1.47.32c-.19.04-.11.33.08.29h0Z"/>
      <path d="m212.67,80.69c.13-.87.47-1.71,1.01-2.41.05-.06.06-.15,0-.21-.05-.05-.16-.06-.21,0-.57.74-.95,1.62-1.09,2.54-.01.08.02.16.1.18.07.02.17-.02.18-.1h0Z"/>
      <path d="m208.81,80.97c.05-.77.19-1.54.43-2.28.06-.18-.23-.26-.29-.08-.25.76-.4,1.55-.44,2.35-.01.19.29.19.3,0h0Z"/>
      <path d="m210.27,80.37c.57-1.44,1.35-2.8,2.32-4.02.12-.15-.09-.36-.21-.21-1,1.26-1.8,2.66-2.39,4.15-.07.18.22.26.29.08h0Z"/>
      <path d="m241.66,82.11c.84-.12,1.66-.36,2.44-.71.17-.08.02-.33-.15-.26-.75.34-1.55.57-2.37.68-.08.01-.12.11-.1.18.02.09.1.12.18.1h0Z"/>
      <path d="m238.14,81.14c1.09-.03,2.18-.12,3.26-.25.19-.02.19-.32,0-.3-1.08.14-2.17.22-3.26.25-.19,0-.19.3,0,.3h0Z"/>
      <path d="m235.83,80.58c1.84.09,3.69,0,5.52-.26.19-.03.11-.31-.08-.29-1.8.26-3.62.34-5.44.25-.19,0-.19.29,0,.3h0Z"/>
      <path d="m188.88,142.42c-.33.54-.67,1.08-1,1.62-.1.16.16.31.26.15.33-.54.67-1.08,1-1.62.1-.16-.16-.31-.26-.15h0Z"/>
      <path d="m187.45,143.73v1.59c0,.19.3.19.3,0v-1.59c0-.19-.3-.19-.3,0h0Z"/>
      <path d="m189.91,143.2c.05.54-.11,1.08-.46,1.5-.05.06-.06.15,0,.21.05.05.16.06.21,0,.4-.47.6-1.09.55-1.71,0-.08-.06-.15-.15-.15-.07,0-.16.07-.15.15h0Z"/>
      <path d="m209.62,101.07c5.42-.92,10.2,2.31,15.11,4,4.42,1.53,9.03,1.37,13.15-.93.42-.23.04-.88-.38-.64-2.22,1.24-4.7,1.92-7.25,1.89s-5.07-.86-7.44-1.84c-4.29-1.78-8.61-4.01-13.39-3.19-.47.08-.27.8.2.72h0Z"/>
      <path d="m207.43,99.12c1.31,4.66,5.28,7.76,9.37,9.95,5.18,2.77,10.84,4.68,16.59,5.8.47.09.67-.63.2-.72-5.46-1.06-10.79-2.84-15.75-5.37-4.16-2.13-8.37-5.14-9.7-9.86-.13-.46-.85-.26-.72.2h0Z"/>
      <path class="cls-1" d="m225.14,91.56c.48,0,.48-.74,0-.74s-.48.74,0,.74h0Z"/>
      <path class="cls-1" d="m225.11,91.41c.48,0,.48-.74,0-.74s-.48.74,0,.74h0Z"/>
      <path class="cls-1" d="m225.02,91.5c.48,0,.48-.74,0-.74s-.48.74,0,.74h0Z"/>
      <path class="cls-1" d="m225.08,91.66c.48,0,.48-.74,0-.74s-.48.74,0,.74h0Z"/>
      <path class="cls-1" d="m225.17,91.58c.48,0,.48-.74,0-.74s-.48.74,0,.74h0Z"/>
      <path class="cls-1" d="m225.17,91.45c.48,0,.48-.74,0-.74s-.48.74,0,.74h0Z"/>
      <path class="cls-1" d="m225.24,91.42c.48,0,.48-.74,0-.74s-.48.74,0,.74h0Z"/>
      <path class="cls-1" d="m225.01,91.42c.48,0,.48-.74,0-.74s-.48.74,0,.74h0Z"/>
      <path class="cls-1" d="m166.66,93.54c.48,0,.48-.74,0-.74s-.48.74,0,.74h0Z"/>
      <path class="cls-6" d="m166.49,93.21c.11.03.22.03.33,0,.02,0,.05-.01.07-.02.05-.02.1-.04.15-.07.1-.06.16-.13.23-.22.03-.04.05-.1.07-.15s.02-.11.03-.16c0-.07-.02-.13-.05-.19-.03-.06-.08-.1-.13-.13-.04-.02-.08-.04-.12-.05-.04-.01-.09-.02-.13-.02-.01,0-.02,0-.04,0-.04,0-.09,0-.13.02-.01,0-.02,0-.04.01-.04.02-.08.03-.12.05-.02.01-.04.03-.07.05-.02.02-.05.03-.07.06-.03.03-.05.07-.08.1,0,.01-.01.02-.02.03-.04.09-.06.15-.07.25,0,.03,0,.05,0,.08s0,.06.02.09c.03.09.06.14.12.21.03.04.08.07.12.1,0,0,.02.01.03.02.04.02.08.04.12.05.01,0,.02,0,.03,0,.04,0,.09.01.13.02.01,0,.02,0,.03,0,.04,0,.09,0,.13-.02.01,0,.02,0,.03-.01.04-.01.08-.03.11-.05s.07-.05.1-.07c0,0,.02-.02.02-.02.06-.07.1-.13.12-.22.01-.04.02-.08.02-.12,0-.01,0-.02,0-.03,0-.1-.02-.15-.06-.24-.02-.05-.06-.09-.09-.13s-.08-.07-.12-.1c-.02-.01-.04-.02-.06-.03-.05-.02-.1-.05-.15-.05-.04,0-.08-.01-.12-.02s-.09,0-.13.01c0,0-.02,0-.03,0-.03.01-.07.03-.1.04,0,0-.01,0-.02,0-.03.02-.07.05-.1.07s-.05.06-.08.1c0,0-.01.02-.02.03-.02.03-.03.07-.04.1,0,0,0,0,0,.01,0,.04-.01.08-.02.12s0,.1.01.13c0,.05.03.1.05.14s.06.09.09.12.08.07.12.1c.02.01.04.02.06.03.04.02.07.03.11.05s.08.01.13.02c.01,0,.02,0,.03,0,.04,0,.08,0,.12-.02s.08-.03.11-.05c0,0,.02,0,.03-.02.03-.02.07-.05.09-.08.04-.04.08-.1.1-.16v-.05s.02-.07,0-.1c0-.02,0-.05,0-.07,0-.01,0-.03-.01-.04-.02-.04-.03-.08-.05-.12-.03-.05-.06-.1-.1-.14s-.09-.08-.13-.11c-.02-.02-.05-.03-.07-.04-.05-.02-.11-.05-.16-.06-.04,0-.09-.01-.13-.02-.02,0-.03,0-.05,0-.06,0-.12,0-.17.03-.09.03-.17.09-.22.17-.03.04-.04.09-.04.14-.01.05,0,.1,0,.15.03.09.08.18.17.22s.19.07.29.04c.02,0,.04,0,.05-.01h-.1s.05.01.08.01h-.1s.06,0,.09.01l-.09-.04s.06.03.09.05l-.08-.06s.05.04.07.07l-.06-.08s.03.04.04.07l-.04-.09s.02.05.02.07l.1-.36s-.01.01-.02.02l.08-.06s-.02.01-.03.02l.09-.04s-.02,0-.03,0h.1s-.03-.01-.04-.01h.1s-.03,0-.05,0l.09.04s-.04-.02-.06-.03l.08.06s-.04-.03-.05-.05l.06.08s-.02-.03-.03-.05l.04.09s-.01-.03-.01-.05v.1s.01-.03.01-.04v.1s0-.02,0-.03l-.04.09s.01-.02.02-.03l-.06.08s.02-.02.03-.03l-.08.06s.02-.01.03-.02l-.09.04s.03,0,.04-.01h-.1s.03.01.05.01h-.1s.04,0,.06,0l-.09-.04s.04.02.06.03l-.08-.06s.03.03.05.05l-.06-.08s.02.03.03.05l-.04-.09s0,.03.01.04v-.1s-.01.03-.01.04v-.1s0,.02,0,.04l.04-.09s-.01.03-.02.04l.06-.08s-.02.02-.03.03l.08-.06s-.03.02-.04.02l.09-.04s-.04.01-.06.02h.1s-.05-.01-.07-.01h.1s-.04,0-.06,0l.09.04s-.03-.02-.05-.03l.08.06s-.02-.02-.03-.03l.06.08s-.02-.02-.02-.04l.04.09s0-.03-.01-.04v.1s.01-.03.01-.04v.1s0-.03,0-.05l-.04.09s.02-.03.03-.05l-.06.08s.03-.03.04-.04l-.08.06s.03-.02.05-.03l-.09.04s.04-.01.06-.02h-.1s.03.01.05.01h-.1s.03,0,.04,0l-.09-.04s.01,0,.02.01l-.18-.32h0s0-.06.01-.09c0,.02-.01.05-.02.07l.04-.09s-.02.04-.04.06l.06-.08s-.04.04-.06.06l.08-.06s-.05.03-.08.04l.09-.04s-.05.02-.08.02h.1s-.05-.01-.07-.01h.1s-.03,0-.05,0c-.05-.02-.1-.02-.15,0-.05,0-.1.02-.14.04-.04.02-.08.06-.1.1-.03.04-.06.08-.07.13-.02.1-.02.2.04.29s.13.14.22.17h0Z"/>
      <path class="cls-6" d="m224.93,90.65c-.26.26-.26.69-.02.96.12.13.29.19.46.21.07,0,.15,0,.21-.02s.14-.05.2-.09c.06-.03.1-.08.13-.13.03-.04.04-.09.04-.14.02-.12-.02-.22-.1-.31l-.31-.35c-.05-.05-.09-.11-.14-.15-.09-.08-.18-.14-.29-.18-.1-.04-.23-.04-.33,0-.13.04-.23.12-.3.24-.04.06-.07.13-.08.21-.01.08-.02.16-.01.24.04.34.2.7.51.88.33.19.8.13,1-.21.11-.19.1-.43,0-.62s-.31-.33-.52-.31c-.1,0-.19.04-.26.11-.06.06-.11.17-.11.26s.04.2.11.26.16.11.26.11c.01,0,.03,0,.04,0h-.1s.03,0,.04,0l-.09-.04s.03.02.05.03l-.08-.06s.03.03.04.04l-.06-.08s.02.04.03.06l-.04-.09s.02.06.02.08v-.1s-.01.05-.01.07v-.1s0,.04,0,.07l.04-.09s-.02.03-.02.04l.06-.08s-.03.03-.05.05l.08-.06s-.04.03-.07.04l.09-.04s-.06.02-.1.03h.1s-.07,0-.1-.01h.1s-.08,0-.11-.02l.09.04s-.07-.04-.1-.06l.08.06s-.07-.06-.09-.09l.06.08c-.04-.06-.08-.12-.11-.19l.04.09c-.03-.07-.06-.15-.07-.23v.1s0-.09.01-.14v.1s0-.05,0-.08l-.04.09s.02-.03.03-.05l-.06.08s.02-.02.03-.03l-.08.06s.03-.02.04-.02l-.09.04s.03,0,.04-.01h-.1s.03.01.05.01h-.1s.03,0,.05,0l-.09-.04s.05.03.08.05l-.08-.06c.09.07.16.17.24.26l.26.29.08-.58s-.04.03-.07.04l.09-.04s-.05.02-.08.02h.1s-.06,0-.09-.01h.1s-.06,0-.09-.01l.09.04s-.04-.02-.06-.03l.08.06s-.03-.03-.05-.05l.06.08s-.03-.05-.04-.07l.04.09s-.02-.05-.02-.08v.1s0-.06.01-.09v.1s0-.05,0-.08l-.04.09s.02-.05.04-.07l-.06.08s.02-.02.02-.03c.07-.07.11-.17.11-.26s-.04-.2-.11-.26c-.15-.14-.38-.15-.53,0h0Z"/>
      <path class="cls-6" d="m225.09,91.22c.05.05.11.11.15.17l-.06-.08c.06.08.11.17.16.26l.06.08s.07.06.12.08c.07.03.16.04.24.02.06-.02.12-.05.16-.1.04-.03.06-.07.08-.12.02-.04.03-.09.03-.14,0-.07-.02-.15-.04-.22s-.05-.14-.08-.2c-.05-.1-.13-.2-.21-.28s-.18-.15-.28-.2c-.06-.03-.13-.06-.2-.08s-.15-.03-.22-.03c-.09,0-.2.05-.26.11-.06.06-.11.17-.11.26s.04.2.11.26l.08.06c.06.03.12.05.19.05,0,0,.02,0,.03,0h-.1c.06,0,.12.01.18.04l-.09-.04c.06.03.12.06.17.1l-.08-.06c.05.04.1.09.14.14l-.06-.08c.04.05.07.11.1.17l-.04-.09c.02.05.04.11.05.17v-.1s-.01,0-.01,0l.69-.19c-.04-.08-.08-.16-.14-.23-.07-.1-.14-.19-.23-.27-.07-.07-.16-.11-.26-.11-.09,0-.2.04-.26.11s-.11.16-.11.26.04.19.11.26h0Z"/>
      <path class="cls-1" d="m221.69,92.6c.48,0,.48-.74,0-.74s-.48.74,0,.74h0Z"/>
      <polygon class="cls-19" points="176.76 70.95 202.54 68.89 208.4 69.33 216.28 70.38 219.37 71.43 217.79 73.14 209.39 75.57 204.39 72.55 203.93 74.65 197.1 77.74 194.23 78.06 176.15 73.48 176.76 70.95"/>
      <polygon class="cls-19" points="213.87 119.44 216.68 119.44 226.44 122.8 229.19 122.8 232.51 127.14 229.63 127.61 229.63 129.95 227.12 131.24 224.62 131.24 213.87 121.75 213.87 119.44"/>
      <path class="cls-19" d="m170.43,126.36s.6-5.39-1.88-3.15c0,0-.3-.01-.41,2.13l-3.4,2.63v3.27l.88,1,.17,1.96h.81l1.17-4.38,1.99,1.42.65,1,1.11.14.77-3.95,1.38-.81.58-1.49s.35-4.31-1.96-3.23c0,0,.9,4.07-.49,3.76,0,0-.47.68-1.39-.3Z"/>
    </g>
  </g>
</svg>